<?xml version="1.0" encoding="UTF-8"?>
<!-- Generator: Adobe Illustrator 15.1.0, SVG Export Plug-In . SVG Version: 6.00 Build 0)  -->
<!DOCTYPE svg PUBLIC "-//W3C//DTD SVG 1.1//EN" "http://www.w3.org/Graphics/SVG/1.1/DTD/svg11.dtd">
<svg version="1.1" id="Layer_1" xmlns="http://www.w3.org/2000/svg" xmlns:xlink="http://www.w3.org/1999/xlink" x="0px" y="0px" width="510.58px" height="56.689px" viewBox="0 0 510.58 56.689" enable-background="new 0 0 510.58 56.689" xml:space="preserve">
<g>
	<g>
		<path fill="#FFFFFF" d="M56.858,16.277h1.469l2.388,3.711l2.389-3.711h1.469v7.849h-1.379v-5.628l-2.479,3.699H60.67l-2.456-3.678    v5.605h-1.355V16.277z"/>
		<path fill="#FFFFFF" d="M66.12,16.009h1.458v1.289H66.12V16.009z M66.177,18.206h1.356v5.92h-1.356V18.206z"/>
		<path fill="#FFFFFF" d="M68.979,18.206h1.356v0.919c0.381-0.561,0.931-1.043,1.851-1.043c1.334,0,2.107,0.897,2.107,2.277v3.767    h-1.355v-3.363c0-0.919-0.46-1.445-1.268-1.445c-0.784,0-1.334,0.549-1.334,1.469v3.341H68.98L68.979,18.206L68.979,18.206z"/>
		<path fill="#FFFFFF" d="M75.628,16.009h1.458v1.289h-1.458V16.009z M75.684,18.206h1.356v5.92h-1.356V18.206z"/>
		<path fill="#FFFFFF" d="M78.005,23.351l0.605-0.918c0.639,0.48,1.334,0.729,1.938,0.729c0.583,0,0.92-0.247,0.92-0.64V22.5    c0-0.459-0.629-0.617-1.323-0.83c-0.875-0.246-1.851-0.604-1.851-1.736V19.91c0-1.121,0.932-1.805,2.108-1.805    c0.74,0,1.547,0.258,2.175,0.672l-0.538,0.965c-0.571-0.348-1.177-0.561-1.67-0.561c-0.526,0-0.83,0.245-0.83,0.594v0.022    c0,0.427,0.64,0.605,1.334,0.829c0.863,0.27,1.839,0.661,1.839,1.728v0.021c0,1.244-0.964,1.861-2.197,1.861    C79.677,24.238,78.745,23.935,78.005,23.351z"/>
		<path fill="#FFFFFF" d="M84.049,22.488v-3.116h-0.751v-1.166h0.751V16.58h1.357v1.626h1.592v1.166h-1.592v2.903    c0,0.526,0.269,0.74,0.729,0.74c0.303,0,0.571-0.066,0.841-0.201v1.108c-0.336,0.191-0.717,0.304-1.223,0.304    C84.755,24.226,84.049,23.789,84.049,22.488z"/>
		<path fill="#FFFFFF" d="M87.715,21.188v-0.022c0-1.692,1.2-3.084,2.894-3.084c1.884,0,2.837,1.48,2.837,3.187    c0,0.123-0.011,0.246-0.022,0.381h-4.35c0.146,0.964,0.83,1.502,1.704,1.502c0.661,0,1.132-0.246,1.603-0.707l0.796,0.707    c-0.561,0.673-1.334,1.108-2.421,1.108C89.038,24.26,87.715,23.015,87.715,21.188z M92.099,20.751    c-0.09-0.874-0.605-1.558-1.502-1.558c-0.83,0-1.413,0.639-1.536,1.558H92.099z"/>
		<path fill="#FFFFFF" d="M94.488,18.206h1.356v1.335c0.369-0.887,1.054-1.492,2.097-1.447v1.437h-0.079    c-1.188,0-2.018,0.772-2.018,2.344v2.253h-1.356V18.206z"/>
		<path fill="#FFFFFF" d="M98.804,16.009h1.458v1.289h-1.458V16.009z M98.861,18.206h1.355v5.92h-1.355V18.206z"/>
		<path fill="#FFFFFF" d="M101.327,21.199v-0.021c0-1.692,1.345-3.096,3.162-3.096s3.15,1.38,3.15,3.072v0.022    c0,1.683-1.346,3.082-3.174,3.082C102.661,24.26,101.327,22.881,101.327,21.199z M106.282,21.199v-0.021    c0-1.043-0.751-1.905-1.816-1.905c-1.087,0-1.782,0.852-1.782,1.883v0.022c0,1.031,0.751,1.905,1.805,1.905    C105.587,23.083,106.282,22.219,106.282,21.199z"/>
		<path fill="#FFFFFF" d="M111.429,21.177v-0.022c0-1.961,1.334-3.072,2.747-3.072c0.975,0,1.592,0.494,2.018,1.043v-3.184h1.355    v8.185h-1.355v-0.986c-0.438,0.616-1.054,1.109-2.018,1.109C112.786,24.249,111.429,23.138,111.429,21.177z M116.217,21.177    v-0.022c0-1.144-0.808-1.896-1.716-1.896c-0.93,0-1.704,0.719-1.704,1.896v0.022c0,1.144,0.785,1.896,1.704,1.896    C115.409,23.072,116.217,22.309,116.217,21.177z"/>
		<path fill="#FFFFFF" d="M118.594,21.188v-0.022c0-1.692,1.199-3.084,2.893-3.084c1.884,0,2.836,1.48,2.836,3.187    c0,0.123-0.011,0.246-0.021,0.381h-4.351c0.146,0.964,0.83,1.502,1.705,1.502c0.661,0,1.132-0.246,1.603-0.707l0.797,0.707    c-0.562,0.673-1.334,1.108-2.422,1.108C119.918,24.26,118.594,23.015,118.594,21.188z M122.978,20.751    c-0.09-0.874-0.605-1.558-1.502-1.558c-0.83,0-1.413,0.639-1.536,1.558H122.978z"/>
		<path fill="#FFFFFF" d="M127.789,22.969l0.908-0.93c0.46,0.582,0.919,0.919,1.581,0.919c0.74,0,1.245-0.493,1.245-1.536v-5.146    h1.413v5.18c0,0.933-0.27,1.626-0.729,2.086c-0.46,0.459-1.122,0.695-1.906,0.695C129.089,24.238,128.304,23.677,127.789,22.969z"/>
		<path fill="#FFFFFF" d="M134.281,21.972v-3.768h1.356v3.364c0,0.918,0.46,1.445,1.267,1.445c0.785,0,1.334-0.55,1.334-1.47v-3.341    h1.357v5.92h-1.357v-0.919c-0.381,0.562-0.93,1.042-1.85,1.042C135.054,24.249,134.281,23.351,134.281,21.972z"/>
		<path fill="#FFFFFF" d="M140.492,23.351l0.605-0.918c0.639,0.48,1.334,0.729,1.938,0.729c0.583,0,0.919-0.247,0.919-0.64V22.5    c0-0.459-0.628-0.617-1.323-0.83c-0.875-0.246-1.85-0.604-1.85-1.736V19.91c0-1.121,0.93-1.805,2.107-1.805    c0.739,0,1.547,0.258,2.175,0.672l-0.538,0.965c-0.572-0.348-1.177-0.561-1.67-0.561c-0.527,0-0.83,0.245-0.83,0.594v0.022    c0,0.427,0.639,0.605,1.334,0.829c0.863,0.27,1.839,0.661,1.839,1.728v0.021c0,1.244-0.964,1.861-2.198,1.861    C142.163,24.238,141.232,23.935,140.492,23.351z"/>
		<path fill="#FFFFFF" d="M146.525,22.488v-3.116h-0.751v-1.166h0.751V16.58h1.355v1.626h1.593v1.166h-1.593v2.903    c0,0.526,0.27,0.74,0.729,0.74c0.303,0,0.572-0.066,0.841-0.201v1.108c-0.336,0.191-0.718,0.304-1.222,0.304    C147.231,24.226,146.525,23.789,146.525,22.488z"/>
		<path fill="#FFFFFF" d="M150.538,16.009h1.458v1.289h-1.458V16.009z M150.595,18.206h1.355v5.92h-1.355V18.206z"/>
		<path fill="#FFFFFF" d="M153.073,21.199v-0.021c0-1.682,1.3-3.096,3.072-3.096c1.121,0,1.815,0.416,2.366,1.021l-0.842,0.907    c-0.415-0.438-0.852-0.739-1.535-0.739c-0.987,0-1.704,0.852-1.704,1.883v0.022c0,1.054,0.729,1.905,1.771,1.905    c0.639,0,1.11-0.303,1.536-0.739l0.818,0.808c-0.583,0.649-1.268,1.108-2.423,1.108C154.373,24.26,153.073,22.881,153.073,21.199z    "/>
		<path fill="#FFFFFF" d="M159.487,16.009h1.458v1.289h-1.458V16.009z M159.542,18.206h1.357v5.92h-1.357V18.206z"/>
		<path fill="#FFFFFF" d="M165.967,24.126v-0.729c-0.402,0.481-1.02,0.853-1.917,0.853c-1.12,0-2.107-0.64-2.107-1.827v-0.021    c0-1.313,1.02-1.94,2.398-1.94c0.719,0,1.178,0.103,1.638,0.248v-0.112c0-0.818-0.517-1.268-1.458-1.268    c-0.662,0-1.155,0.146-1.693,0.37l-0.369-1.088c0.65-0.291,1.289-0.493,2.253-0.493c1.749,0,2.602,0.919,2.602,2.501v3.509h-1.346    V24.126z M166.001,21.648c-0.348-0.135-0.83-0.236-1.356-0.236c-0.853,0-1.356,0.348-1.356,0.92v0.022    c0,0.561,0.504,0.874,1.145,0.874c0.896,0,1.568-0.504,1.568-1.244V21.648z"/>
		<path fill="#FFFFFF" d="M171.45,25.594l0.46-1.009c0.247,0.135,0.517,0.225,0.795,0.225c0.381,0,0.617-0.168,0.842-0.685    l-2.467-5.92h1.446l1.682,4.396l1.537-4.396h1.413l-2.354,6.088c-0.472,1.211-0.998,1.659-1.951,1.659    C172.28,25.953,171.865,25.818,171.45,25.594z"/>
		<path fill="#FFFFFF" d="M181.194,16.277h2.926c2.467,0,4.171,1.692,4.171,3.902V20.2c0,2.209-1.704,3.925-4.171,3.925h-2.926    V16.277z M184.12,22.87c1.648,0,2.726-1.11,2.726-2.646v-0.023c0-1.535-1.076-2.668-2.726-2.668h-1.547v5.337H184.12z"/>
		<path fill="#FFFFFF" d="M189.155,21.188v-0.022c0-1.692,1.2-3.084,2.893-3.084c1.885,0,2.838,1.48,2.838,3.187    c0,0.123-0.012,0.246-0.022,0.381h-4.35c0.146,0.964,0.83,1.502,1.703,1.502c0.661,0,1.133-0.246,1.604-0.707l0.796,0.707    c-0.561,0.673-1.334,1.108-2.421,1.108C190.478,24.26,189.155,23.015,189.155,21.188z M193.538,20.751    c-0.09-0.874-0.604-1.558-1.502-1.558c-0.83,0-1.413,0.639-1.536,1.558H193.538z"/>
		<path fill="#FFFFFF" d="M195.927,18.206h1.355v1.335c0.37-0.887,1.054-1.492,2.097-1.447v1.437h-0.077    c-1.188,0-2.02,0.772-2.02,2.344v2.253h-1.355V18.206z"/>
		<path fill="#FFFFFF" d="M199.897,21.188v-0.022c0-1.692,1.199-3.084,2.893-3.084c1.883,0,2.836,1.48,2.836,3.187    c0,0.123-0.011,0.246-0.021,0.381h-4.351c0.146,0.964,0.83,1.502,1.704,1.502c0.662,0,1.133-0.246,1.604-0.707l0.795,0.707    c-0.562,0.673-1.334,1.108-2.422,1.108C201.219,24.26,199.897,23.015,199.897,21.188z M204.28,20.751    c-0.089-0.874-0.605-1.558-1.502-1.558c-0.83,0-1.413,0.639-1.536,1.558H204.28z"/>
		<path fill="#FFFFFF" d="M206.344,21.199v-0.021c0-1.682,1.3-3.096,3.071-3.096c1.121,0,1.816,0.416,2.365,1.021l-0.84,0.907    c-0.416-0.438-0.853-0.739-1.537-0.739c-0.987,0-1.704,0.852-1.704,1.883v0.022c0,1.054,0.729,1.905,1.771,1.905    c0.64,0,1.109-0.303,1.535-0.739l0.818,0.808c-0.583,0.649-1.267,1.108-2.422,1.108C207.644,24.26,206.344,22.881,206.344,21.199z    "/>
		<path fill="#FFFFFF" d="M212.735,15.941h1.356v3.184c0.382-0.561,0.931-1.043,1.85-1.043c1.335,0,2.107,0.897,2.107,2.277v3.767    h-1.355v-3.363c0-0.919-0.46-1.445-1.269-1.445c-0.784,0-1.333,0.549-1.333,1.469v3.341h-1.356V15.941z"/>
		<path fill="#FFFFFF" d="M219.025,21.199v-0.021c0-1.692,1.345-3.096,3.162-3.096c1.816,0,3.15,1.38,3.15,3.072v0.022    c0,1.683-1.345,3.082-3.173,3.082C220.36,24.26,219.025,22.881,219.025,21.199z M223.98,21.199v-0.021    c0-1.043-0.75-1.905-1.816-1.905c-1.087,0-1.782,0.852-1.782,1.883v0.022c0,1.031,0.75,1.905,1.805,1.905    C223.285,23.083,223.98,22.219,223.98,21.199z"/>
		<path fill="#FFFFFF" d="M225.91,23.351l0.605-0.918c0.639,0.48,1.334,0.729,1.938,0.729c0.583,0,0.919-0.247,0.919-0.64V22.5    c0-0.459-0.628-0.617-1.323-0.83c-0.875-0.246-1.849-0.604-1.849-1.736V19.91c0-1.121,0.93-1.805,2.107-1.805    c0.739,0,1.547,0.258,2.175,0.672l-0.538,0.965c-0.572-0.348-1.178-0.561-1.671-0.561c-0.526,0-0.83,0.245-0.83,0.594v0.022    c0,0.427,0.64,0.605,1.335,0.829c0.863,0.27,1.838,0.661,1.838,1.728v0.021c0,1.244-0.964,1.861-2.197,1.861    C227.58,24.238,226.65,23.935,225.91,23.351z"/>
		<path fill="#FFFFFF" d="M234.857,16.277h1.379v3.264h3.745v-3.264h1.379v7.849h-1.379v-3.308h-3.745v3.308h-1.379V16.277z"/>
		<path fill="#FFFFFF" d="M242.829,21.972v-3.768h1.356v3.364c0,0.918,0.459,1.445,1.267,1.445c0.785,0,1.334-0.55,1.334-1.47    v-3.341h1.356v5.92h-1.356v-0.919c-0.382,0.562-0.931,1.042-1.851,1.042C243.603,24.249,242.829,23.351,242.829,21.972z"/>
		<path fill="#FFFFFF" d="M249.512,18.206h1.356v0.897c0.381-0.527,0.896-1.021,1.804-1.021c0.854,0,1.447,0.416,1.762,1.043    c0.481-0.627,1.109-1.043,2.007-1.043c1.29,0,2.075,0.819,2.075,2.267v3.777h-1.357v-3.363c0-0.941-0.437-1.445-1.199-1.445    c-0.739,0-1.268,0.516-1.268,1.469v3.341h-1.356v-3.375c0-0.919-0.447-1.435-1.199-1.435c-0.75,0-1.267,0.561-1.267,1.479v3.33    h-1.356L249.512,18.206L249.512,18.206z"/>
		<path fill="#FFFFFF" d="M263.449,24.126v-0.729c-0.404,0.481-1.021,0.853-1.918,0.853c-1.121,0-2.107-0.64-2.107-1.827v-0.021    c0-1.313,1.021-1.94,2.399-1.94c0.718,0,1.177,0.103,1.637,0.248v-0.112c0-0.818-0.516-1.268-1.457-1.268    c-0.662,0-1.154,0.146-1.692,0.37l-0.37-1.088c0.649-0.291,1.289-0.493,2.254-0.493c1.749,0,2.601,0.919,2.601,2.501v3.509h-1.346    V24.126z M263.483,21.648c-0.348-0.135-0.83-0.236-1.356-0.236c-0.853,0-1.355,0.348-1.355,0.92v0.022    c0,0.561,0.504,0.874,1.144,0.874c0.896,0,1.569-0.504,1.569-1.244L263.483,21.648L263.483,21.648z"/>
		<path fill="#FFFFFF" d="M266.084,18.206h1.356v0.919c0.382-0.561,0.931-1.043,1.851-1.043c1.334,0,2.107,0.897,2.107,2.277v3.767    h-1.356v-3.363c0-0.919-0.46-1.445-1.268-1.445c-0.784,0-1.334,0.549-1.334,1.469v3.341h-1.356V18.206z"/>
		<path fill="#FFFFFF" d="M272.374,21.199v-0.021c0-1.692,1.347-3.096,3.162-3.096c1.816,0,3.15,1.38,3.15,3.072v0.022    c0,1.683-1.347,3.082-3.173,3.082C273.709,24.26,272.374,22.881,272.374,21.199z M277.33,21.199v-0.021    c0-1.043-0.751-1.905-1.815-1.905c-1.089,0-1.783,0.852-1.783,1.883v0.022c0,1.031,0.752,1.905,1.806,1.905    C276.635,23.083,277.33,22.219,277.33,21.199z"/>
		<path fill="#FFFFFF" d="M279.26,23.351l0.604-0.918c0.639,0.48,1.334,0.729,1.939,0.729c0.583,0,0.92-0.247,0.92-0.64V22.5    c0-0.459-0.628-0.617-1.323-0.83c-0.875-0.246-1.85-0.604-1.85-1.736V19.91c0-1.121,0.93-1.805,2.106-1.805    c0.74,0,1.547,0.258,2.175,0.672l-0.538,0.965c-0.57-0.348-1.177-0.561-1.67-0.561c-0.526,0-0.83,0.245-0.83,0.594v0.022    c0,0.427,0.64,0.605,1.334,0.829c0.863,0.27,1.84,0.661,1.84,1.728v0.021c0,1.244-0.965,1.861-2.197,1.861    C280.93,24.238,279.999,23.935,279.26,23.351z"/>
	</g>
	<path fill="#FFFFFF" d="M56.878,30.334h5.226c3.086,0,5.037,1.761,5.037,4.431v0.038c0,2.974-2.387,4.523-5.303,4.523h-2.631v4.262   h-2.329V30.334z M61.914,37.224c1.761,0,2.858-0.982,2.858-2.365v-0.038c0-1.554-1.117-2.366-2.858-2.366h-2.707v4.771   L61.914,37.224L61.914,37.224z"/>
	<path fill="#FFFFFF" d="M69.07,33.592h2.291v2.252c0.625-1.495,1.78-2.518,3.54-2.442v2.424h-0.132   c-2.007,0-3.408,1.307-3.408,3.957v3.805H69.07V33.592z"/>
	<path fill="#FFFFFF" d="M76.151,38.627V38.59c0-2.858,2.025-5.207,4.884-5.207c3.181,0,4.79,2.498,4.79,5.377   c0,0.207-0.019,0.416-0.038,0.644h-7.345c0.246,1.629,1.401,2.537,2.878,2.537c1.116,0,1.912-0.416,2.706-1.193l1.345,1.193   c-0.947,1.137-2.253,1.875-4.089,1.875C78.385,43.814,76.151,41.713,76.151,38.627 M83.553,37.888   c-0.151-1.478-1.022-2.632-2.537-2.632c-1.401,0-2.386,1.078-2.595,2.632H83.553z"/>
	<path fill="#FFFFFF" d="M87.131,42.281l1.022-1.553c1.08,0.813,2.253,1.229,3.276,1.229c0.983,0,1.552-0.416,1.552-1.08v-0.037   c0-0.776-1.062-1.041-2.234-1.399c-1.477-0.416-3.124-1.023-3.124-2.935v-0.039c0-1.893,1.572-3.048,3.561-3.048   c1.249,0,2.611,0.436,3.672,1.137l-0.908,1.629c-0.965-0.588-1.988-0.947-2.821-0.947c-0.89,0-1.4,0.416-1.4,1.004v0.037   c0,0.719,1.08,1.021,2.253,1.4c1.458,0.454,3.104,1.116,3.104,2.915v0.037c0,2.103-1.628,3.144-3.71,3.144   C89.951,43.775,88.38,43.265,87.131,42.281"/>
	<path fill="#FFFFFF" d="M97.26,29.879h2.462v2.181H97.26V29.879z M97.353,33.592h2.291v9.996h-2.291V33.592z"/>
	<path fill="#FFFFFF" d="M101.935,38.607v-0.039c0-3.312,2.252-5.188,4.638-5.188c1.647,0,2.688,0.835,3.408,1.762v-5.375h2.29   v13.819h-2.29v-1.666c-0.738,1.041-1.779,1.873-3.408,1.873C104.226,43.795,101.935,41.922,101.935,38.607 M110.019,38.607v-0.039   c0-1.93-1.362-3.197-2.896-3.197c-1.571,0-2.879,1.211-2.879,3.197v0.039c0,1.932,1.326,3.199,2.879,3.199   C108.657,41.806,110.019,40.519,110.019,38.607"/>
	<path fill="#FFFFFF" d="M114.391,38.627V38.59c0-2.858,2.025-5.207,4.885-5.207c3.18,0,4.79,2.498,4.79,5.377   c0,0.207-0.02,0.416-0.039,0.644h-7.345c0.246,1.629,1.4,2.537,2.878,2.537c1.117,0,1.912-0.416,2.708-1.193l1.345,1.193   c-0.947,1.137-2.254,1.875-4.09,1.875C116.626,43.814,114.391,41.713,114.391,38.627 M121.795,37.888   c-0.151-1.478-1.022-2.632-2.538-2.632c-1.399,0-2.385,1.078-2.593,2.632H121.795z"/>
	<path fill="#FFFFFF" d="M126.186,33.592h2.291v1.552c0.643-0.946,1.571-1.761,3.123-1.761c2.253,0,3.559,1.515,3.559,3.843v6.36   h-2.291v-5.68c0-1.551-0.777-2.441-2.139-2.441c-1.326,0-2.253,0.929-2.253,2.48v5.641h-2.291L126.186,33.592L126.186,33.592z"/>
	<path fill="#FFFFFF" d="M137.185,38.644v-0.037c0-2.84,2.195-5.226,5.188-5.226c1.894,0,3.066,0.701,3.996,1.724l-1.42,1.533   c-0.701-0.738-1.438-1.248-2.594-1.248c-1.667,0-2.878,1.438-2.878,3.18v0.037c0,1.778,1.23,3.219,2.991,3.219   c1.079,0,1.875-0.51,2.595-1.25l1.382,1.363c-0.984,1.098-2.14,1.875-4.09,1.875C139.381,43.814,137.185,41.486,137.185,38.644"/>
	<path fill="#FFFFFF" d="M148.393,29.879h2.461v2.181h-2.461V29.879z M148.487,33.592h2.291v9.996h-2.291V33.592z"/>
	<path fill="#FFFFFF" d="M159.695,43.586v-1.229c-0.681,0.813-1.722,1.438-3.237,1.438c-1.893,0-3.559-1.078-3.559-3.086v-0.037   c0-2.217,1.723-3.274,4.051-3.274c1.213,0,1.988,0.17,2.765,0.416v-0.189c0-1.381-0.871-2.139-2.461-2.139   c-1.115,0-1.95,0.246-2.857,0.625l-0.625-1.838c1.098-0.491,2.177-0.832,3.805-0.832c2.953,0,4.394,1.553,4.394,4.221v5.926   L159.695,43.586L159.695,43.586z M159.752,39.402c-0.586-0.228-1.4-0.398-2.291-0.398c-1.438,0-2.29,0.588-2.29,1.556v0.037   c0,0.944,0.852,1.477,1.931,1.477c1.516,0,2.65-0.852,2.65-2.102V39.402z"/>
	<path fill="#FFFFFF" d="M169.482,38.607v-0.039c0-3.312,2.253-5.188,4.639-5.188c1.646,0,2.688,0.835,3.408,1.762v-5.375h2.291   v13.819h-2.291v-1.666c-0.738,1.041-1.779,1.873-3.408,1.873C171.773,43.795,169.482,41.922,169.482,38.607 M177.566,38.607v-0.039   c0-1.93-1.363-3.197-2.897-3.197c-1.571,0-2.878,1.211-2.878,3.197v0.039c0,1.932,1.325,3.199,2.878,3.199   C176.203,41.806,177.566,40.519,177.566,38.607"/>
	<path fill="#FFFFFF" d="M181.939,38.627V38.59c0-2.858,2.024-5.207,4.885-5.207c3.181,0,4.789,2.498,4.789,5.377   c0,0.207-0.019,0.416-0.037,0.644h-7.347c0.247,1.629,1.401,2.537,2.879,2.537c1.117,0,1.913-0.416,2.707-1.193l1.344,1.193   c-0.947,1.137-2.253,1.875-4.09,1.875C184.173,43.814,181.939,41.713,181.939,38.627 M189.342,37.888   c-0.151-1.478-1.022-2.632-2.537-2.632c-1.4,0-2.386,1.078-2.595,2.632H189.342z"/>
	<rect x="199.356" y="29.767" fill="#FFFFFF" width="2.291" height="13.819"/>
	<path fill="#FFFFFF" d="M210.563,43.586v-1.229c-0.681,0.813-1.723,1.438-3.237,1.438c-1.893,0-3.56-1.078-3.56-3.086v-0.037   c0-2.217,1.724-3.274,4.052-3.274c1.211,0,1.988,0.17,2.765,0.416v-0.189c0-1.381-0.871-2.139-2.461-2.139   c-1.117,0-1.951,0.246-2.858,0.625l-0.625-1.838c1.098-0.491,2.177-0.832,3.806-0.832c2.953,0,4.392,1.553,4.392,4.221v5.926   L210.563,43.586L210.563,43.586z M210.62,39.402c-0.586-0.228-1.4-0.398-2.291-0.398c-1.438,0-2.292,0.588-2.292,1.556v0.037   c0,0.944,0.853,1.477,1.933,1.477c1.515,0,2.649-0.852,2.649-2.102L210.62,39.402L210.62,39.402z"/>
	<polygon fill="#FFFFFF" points="221.127,30.335 223.285,30.335 230.385,39.498 230.385,30.335 232.677,30.335 232.677,43.588    230.725,43.588 223.418,34.159 223.418,43.588 221.127,43.588  "/>
	<path fill="#FFFFFF" d="M241.743,43.586v-1.229c-0.682,0.813-1.724,1.438-3.237,1.438c-1.894,0-3.56-1.078-3.56-3.086v-0.037   c0-2.217,1.723-3.274,4.051-3.274c1.212,0,1.987,0.17,2.765,0.416v-0.189c0-1.381-0.871-2.139-2.462-2.139   c-1.116,0-1.949,0.246-2.858,0.625l-0.624-1.838c1.098-0.491,2.177-0.832,3.805-0.832c2.953,0,4.394,1.553,4.394,4.221v5.926   L241.743,43.586L241.743,43.586z M241.802,39.402c-0.589-0.228-1.402-0.398-2.293-0.398c-1.438,0-2.292,0.588-2.292,1.556v0.037   c0,0.944,0.854,1.477,1.933,1.477c1.514,0,2.65-0.852,2.65-2.102v-0.569H241.802z"/>
	<path fill="#FFFFFF" d="M246.002,38.644v-0.037c0-2.84,2.197-5.226,5.188-5.226c1.893,0,3.065,0.701,3.995,1.724l-1.421,1.533   c-0.7-0.738-1.438-1.248-2.595-1.248c-1.666,0-2.877,1.438-2.877,3.18v0.037c0,1.778,1.23,3.219,2.991,3.219   c1.079,0,1.874-0.51,2.594-1.25l1.383,1.363c-0.984,1.098-2.14,1.875-4.091,1.875C248.198,43.814,246.002,41.486,246.002,38.644"/>
	<path fill="#FFFFFF" d="M257.21,29.879h2.462v2.181h-2.462V29.879z M257.305,33.592h2.29v9.996h-2.29V33.592z"/>
	<path fill="#FFFFFF" d="M261.848,38.646v-0.039c0-2.857,2.271-5.227,5.339-5.227c3.065,0,5.318,2.329,5.318,5.188v0.039   c0,2.84-2.271,5.207-5.357,5.207C264.101,43.814,261.848,41.486,261.848,38.646 M270.215,38.646v-0.039   c0-1.76-1.269-3.219-3.066-3.219c-1.836,0-3.01,1.438-3.01,3.18v0.039c0,1.742,1.269,3.219,3.049,3.219   C269.042,41.826,270.215,40.369,270.215,38.646 M268.228,29.218l2.083,0.928l-2.328,2.178h-1.724L268.228,29.218z"/>
	<path fill="#FFFFFF" d="M274.645,33.592h2.292v1.552c0.643-0.946,1.569-1.761,3.123-1.761c2.253,0,3.559,1.515,3.559,3.843v6.36   h-2.29v-5.68c0-1.551-0.775-2.441-2.139-2.441c-1.326,0-2.253,0.929-2.253,2.48v5.641h-2.292V33.592L274.645,33.592z"/>
	<path fill="#3F8ECE" d="M30.217,27.625h-2.756c-0.601,0-0.932-0.25-1.104-0.459c-0.147-0.18-0.244-0.412-0.287-0.679   c-0.005-0.021-0.008-0.042-0.009-0.063c-0.032-0.252-0.021-0.53,0.041-0.834c0.357-1.802,1.081-3.02,1.676-3.762   c-0.065-0.021-0.129-0.049-0.19-0.084c-0.381-0.216-0.564-0.654-0.481-1.145c0.103-0.599,0.668-1.205,0.77-1.311   c0.948-1.109,2.359-1.169,2.534-1.173c0.21-0.016,2.066-0.096,3.068,1.854c1.195,2.328,1.479,4.251,1.708,5.796l0.011,0.073   c0.041,0.27,0.022,0.494-0.027,0.682c-0.004,0.021-0.011,0.041-0.018,0.062c-0.068,0.214-0.175,0.373-0.28,0.485   c-0.248,0.27-0.611,0.443-1.084,0.52c-0.198,0.031-0.374,0.037-0.485,0.037c-0.055,0-0.094-0.002-0.113-0.002h-0.793   c-0.003,0-0.007,0-0.016,0c-0.004,0-0.011,0-0.018,0h-1.318v3.897h12.303c0-2.282-0.34-4.495-1.008-6.577   c-0.645-2.008-1.566-3.812-2.74-5.356c-1.169-1.542-2.531-2.751-4.043-3.595c-1.562-0.87-3.219-1.311-4.925-1.311   s-3.363,0.439-4.924,1.311c-1.514,0.844-2.875,2.053-4.044,3.595c-1.174,1.546-2.097,3.35-2.74,5.356   c-0.668,2.082-1.007,4.295-1.007,6.577h12.303v-3.896H30.217z"/>
	<path fill="#FFFFFF" d="M17.915,31.522c0,1.73,0.195,3.423,0.582,5.05c5.502-0.627,8.786-1.275,9.761-1.926   c0.686-0.484,1.236-0.765,1.959-0.743v-2.381H17.915z"/>
	<path fill="#FFFFFF" d="M31.043,33.999c0.495,0.089,0.852,0.227,1.257,0.424c0.041-0.001,0.081-0.003,0.123-0.005   c0.704-0.03,1.305,0.186,2.135,0.483c0.226,0.081,0.482,0.175,0.764,0.271c0.121,0.037,4.078,1.279,7.426,1.472   c0.398-1.646,0.601-3.364,0.601-5.12H31.043V33.999z"/>
	<polyline fill="#222220" points="29.817,12.534 29.817,12.534 29.817,12.534 29.817,12.534  "/>
	<path fill="#222220" d="M27.252,12.91"/>
	<path fill="#222220" d="M27.251,12.912"/>
	<path fill="#FFFFFF" d="M36.055,39.373c-0.052,0.107-0.123,0.219-0.228,0.318c-0.207,0.199-0.483,0.307-0.827,0.319   c-0.043,0.099-0.107,0.214-0.205,0.324c-0.187,0.215-0.519,0.445-1.075,0.42c-0.052,0.088-0.122,0.193-0.219,0.291   c-0.275,0.279-0.643,0.39-1.046,0.318c-0.095,0.076-0.238,0.172-0.425,0.246c-0.233,0.092-0.569,0.162-0.986,0.08v3.262   c0,0.229-0.186,0.414-0.414,0.414s-0.414-0.186-0.414-0.414v-3.125c-0.162,0.062-0.345,0.105-0.531,0.105   c-0.072,0-0.145-0.009-0.218-0.021c-0.23-0.045-0.429-0.168-0.582-0.356c-0.276,0.045-0.758,0.073-1.102-0.158   c-0.142-0.097-0.246-0.228-0.308-0.388c-0.11-0.012-0.248-0.034-0.391-0.079c-0.36-0.115-0.608-0.326-0.721-0.607   c-0.085-0.004-0.182-0.012-0.285-0.027c-0.298-0.045-0.685-0.172-0.836-0.52c-0.033-0.074-0.054-0.15-0.063-0.229   c-1.752,0.902-3.755,1.804-4.652,2.201c0.346,0.598,0.725,1.168,1.133,1.707c1.17,1.543,2.53,2.75,4.044,3.596   c0.706,0.394,1.434,0.697,2.174,0.914c0.075-0.139,0.184-0.258,0.323-0.35c0.706-0.461,2.048-0.125,2.427-0.016   c0.378-0.109,1.722-0.445,2.428,0.016c0.14,0.092,0.248,0.211,0.321,0.35c0.742-0.215,1.47-0.521,2.177-0.914   c1.514-0.846,2.874-2.053,4.044-3.596c0.385-0.508,0.741-1.041,1.071-1.602C39.674,41.441,37.471,40.469,36.055,39.373"/>
	<path fill="#3F8ECE" d="M31.76,50.541c0.022-0.092,0.034-0.186,0.034-0.283c0-0.088-0.01-0.176-0.03-0.258   c0.416-0.084,1.087-0.283,1.46-0.737c0.217-0.267,0.307-0.576,0.268-0.927c-0.034-0.309-0.184-0.559-0.435-0.721   c-0.706-0.461-2.049-0.125-2.428-0.018c-0.379-0.107-1.721-0.443-2.427,0.018c-0.25,0.162-0.4,0.412-0.435,0.721   c-0.039,0.351,0.051,0.66,0.268,0.927c0.376,0.459,1.054,0.657,1.468,0.737c-0.019,0.084-0.029,0.17-0.029,0.258   c0,0.097,0.012,0.188,0.033,0.275c-0.3,0.295-1.272,1.148-2.679,1.305c0.042,0.074,0.165,0.273,0.41,0.492   c1.249-0.233,2.133-0.92,2.536-1.295c0.04,0.045,0.083,0.086,0.13,0.123c-0.089,0.344-0.462,1.229-1.984,1.613   c0.252,0.112,0.556,0.207,0.917,0.26c1.059-0.48,1.436-1.211,1.568-1.637c0.074,0.016,0.15,0.022,0.228,0.022   c0.076,0,0.149-0.008,0.221-0.021c0.134,0.426,0.511,1.155,1.567,1.635c0.361-0.053,0.664-0.146,0.916-0.26   c-1.515-0.383-1.89-1.256-1.981-1.607c0.047-0.037,0.092-0.078,0.133-0.123c0.405,0.375,1.288,1.058,2.531,1.289   c0.245-0.219,0.37-0.418,0.41-0.492C33.036,51.683,32.068,50.844,31.76,50.541"/>
	<path fill="#FFFFFF" d="M32.758,48.074c0.114,0.072,0.175,0.176,0.191,0.322c0.022,0.198-0.026,0.369-0.148,0.518   c-0.161,0.199-0.435,0.338-0.706,0.433c0.132-0.277,0.152-0.556,0.055-0.818c-0.096-0.26-0.257-0.447-0.438-0.58   C32.126,47.906,32.531,47.926,32.758,48.074"/>
	<path fill="#FFFFFF" d="M29.625,48.719c0.204-0.551,0.975-0.561,1.004-0.561h0.001c0.001,0,0.208,0,0.439,0.074   c0.291,0.092,0.479,0.256,0.566,0.485c0.092,0.248-0.082,0.509-0.234,0.673c-0.204-0.183-0.473-0.293-0.769-0.293   c-0.297,0-0.567,0.112-0.772,0.297C29.71,49.232,29.531,48.972,29.625,48.719"/>
	<path fill="#FFFFFF" d="M29.166,49.344c-0.27-0.094-0.543-0.231-0.707-0.432c-0.122-0.147-0.169-0.315-0.146-0.518   c0.016-0.146,0.077-0.25,0.189-0.322c0.161-0.107,0.412-0.146,0.693-0.146c0.114,0,0.235,0.009,0.354,0.019   c-0.181,0.135-0.341,0.322-0.438,0.582C28.999,48.83,29.054,49.113,29.166,49.344"/>
	<path fill="#FFFFFF" d="M30.023,50.258c0-0.338,0.273-0.61,0.612-0.61c0.338,0,0.612,0.272,0.612,0.61   c0,0.339-0.274,0.611-0.612,0.611C30.297,50.869,30.023,50.594,30.023,50.258"/>
	<path fill="#FFFFFF" d="M34.021,52.33c-1.244-0.233-2.127-0.914-2.532-1.289c-0.042,0.045-0.086,0.086-0.133,0.123   c0.091,0.353,0.468,1.226,1.981,1.607C33.63,52.638,33.853,52.48,34.021,52.33"/>
	<path fill="#FFFFFF" d="M29.776,51.035c-0.403,0.375-1.288,1.062-2.537,1.295c0.167,0.15,0.392,0.31,0.683,0.441   c1.522-0.386,1.896-1.271,1.983-1.613C29.86,51.121,29.817,51.08,29.776,51.035"/>
	<path fill="#222220" d="M46.024,34.799c0.011-0.088-0.023-0.177-0.092-0.233c-0.052-0.043-0.118-0.064-0.185-0.063   c0.053-0.108,0.103-0.225,0.146-0.344c0.19-0.523,0.292-1.125,0.299-1.791c0.001-0.09-0.042-0.172-0.116-0.222   c-0.055-0.035-0.119-0.052-0.182-0.042c0.04-0.11,0.074-0.226,0.104-0.338c0.14-0.539,0.181-1.149,0.121-1.812   c-0.008-0.09-0.06-0.168-0.138-0.21c-0.06-0.032-0.125-0.04-0.188-0.024c0.034-0.13,0.063-0.264,0.083-0.397   c0.086-0.55,0.067-1.162-0.057-1.814c-0.016-0.088-0.075-0.159-0.158-0.194c-0.043-0.019-0.092-0.023-0.14-0.019   c0.017-0.092,0.031-0.188,0.041-0.279c0.06-0.553,0.012-1.161-0.143-1.811c-0.021-0.086-0.083-0.156-0.167-0.186   c-0.083-0.031-0.176-0.019-0.248,0.035h-0.001c0.014-0.144,0.017-0.291,0.012-0.439c-0.018-0.556-0.148-1.151-0.391-1.772   c-0.031-0.083-0.104-0.143-0.189-0.162c-0.072-0.016-0.146,0-0.204,0.041c-0.004-0.136-0.016-0.271-0.034-0.404   c-0.074-0.553-0.266-1.133-0.571-1.726c-0.041-0.078-0.118-0.131-0.206-0.141c-0.071-0.008-0.144,0.014-0.197,0.06   c-0.021-0.122-0.045-0.248-0.077-0.372c-0.14-0.54-0.398-1.096-0.771-1.648c-0.05-0.075-0.135-0.117-0.223-0.117   c-0.085,0.001-0.166,0.044-0.214,0.114c-0.044-0.146-0.099-0.291-0.161-0.435c-0.225-0.512-0.57-1.016-1.027-1.504   c-0.063-0.065-0.157-0.097-0.247-0.077c-0.064,0.016-0.122,0.053-0.159,0.104c-0.069-0.145-0.148-0.287-0.238-0.426   c-0.299-0.467-0.713-0.907-1.229-1.309c-0.068-0.056-0.162-0.07-0.247-0.042c-0.067,0.022-0.123,0.072-0.152,0.136   c-0.344-0.459-0.829-0.803-1.445-1.023c0.107,0.01,0.217,0.02,0.332,0.025c0.73,0.045,1.246-0.109,1.268-0.115   c0.156-0.049,0.255-0.201,0.234-0.361c-0.021-0.162-0.153-0.285-0.315-0.292c-0.798-0.039-1.099-0.202-1.479-0.409   c-0.072-0.041-0.146-0.079-0.226-0.12l1.872-0.279c0.163-0.025,0.284-0.166,0.283-0.332c0-0.166-0.123-0.305-0.286-0.33   l-1.857-0.266c0.216-0.06,0.466-0.132,0.724-0.222c0.692-0.237,1.108-0.579,1.125-0.594c0.125-0.102,0.158-0.281,0.078-0.422   c-0.081-0.141-0.251-0.205-0.404-0.148c-0.751,0.271-1.091,0.234-1.521,0.188c-0.081-0.009-0.163-0.02-0.251-0.025l1.619-0.972   c0.141-0.084,0.2-0.262,0.136-0.414s-0.23-0.236-0.391-0.196L36.15,9.094c0.176-0.136,0.382-0.301,0.587-0.483   c0.547-0.485,0.802-0.961,0.812-0.979c0.077-0.144,0.038-0.32-0.09-0.421c-0.128-0.098-0.31-0.092-0.429,0.019   c-0.59,0.538-0.919,0.635-1.333,0.758c-0.078,0.021-0.156,0.047-0.239,0.072l1.123-1.513c0.1-0.133,0.084-0.318-0.033-0.436   c-0.116-0.117-0.302-0.131-0.436-0.031L34.6,7.208c0.111-0.193,0.238-0.427,0.359-0.677c0.318-0.659,0.372-1.193,0.374-1.217   c0.016-0.16-0.087-0.312-0.245-0.354c-0.155-0.043-0.32,0.033-0.391,0.181c-0.339,0.725-0.604,0.938-0.941,1.212   c-0.061,0.05-0.124,0.101-0.188,0.155l0.459-1.822c0.04-0.16-0.043-0.328-0.197-0.392c-0.151-0.063-0.329-0.006-0.414,0.138   L32.448,6.06c0.03-0.226,0.058-0.49,0.074-0.769c0.042-0.731-0.114-1.246-0.121-1.268c-0.047-0.156-0.2-0.254-0.361-0.233   c-0.162,0.021-0.284,0.155-0.292,0.316c-0.035,0.798-0.199,1.099-0.403,1.479c-0.037,0.068-0.075,0.14-0.114,0.213l-0.271-1.856   c-0.022-0.163-0.165-0.285-0.331-0.285c-0.167,0.002-0.307,0.123-0.331,0.287l-0.261,1.848c-0.057-0.213-0.129-0.46-0.217-0.713   c-0.239-0.693-0.579-1.107-0.592-1.125c-0.104-0.127-0.282-0.158-0.423-0.08c-0.143,0.081-0.205,0.252-0.149,0.404   c0.27,0.751,0.234,1.092,0.188,1.521c-0.01,0.083-0.02,0.168-0.026,0.259l-0.979-1.625c-0.085-0.144-0.262-0.201-0.415-0.138   c-0.152,0.064-0.234,0.23-0.194,0.392l0.467,1.814c-0.135-0.176-0.298-0.379-0.479-0.581c-0.484-0.547-0.959-0.803-0.979-0.813   c-0.143-0.075-0.32-0.037-0.419,0.092c-0.101,0.127-0.093,0.309,0.016,0.428c0.538,0.591,0.635,0.918,0.757,1.334   c0.023,0.078,0.047,0.158,0.074,0.244L25.144,6.08c-0.133-0.1-0.318-0.085-0.437,0.033c-0.117,0.117-0.129,0.303-0.028,0.436   l1.128,1.507c-0.193-0.111-0.425-0.238-0.669-0.356c-0.659-0.319-1.194-0.374-1.217-0.376c-0.161-0.016-0.312,0.088-0.354,0.244   c-0.044,0.157,0.033,0.322,0.18,0.391c0.724,0.34,0.938,0.605,1.21,0.941c0.05,0.063,0.104,0.127,0.159,0.192l-1.833-0.459   c-0.161-0.041-0.326,0.043-0.39,0.195c-0.063,0.154-0.004,0.33,0.138,0.415l1.625,0.966c-0.221-0.028-0.485-0.059-0.759-0.074   c-0.731-0.041-1.245,0.113-1.268,0.12c-0.154,0.048-0.254,0.2-0.232,0.361c0.021,0.161,0.154,0.284,0.315,0.291   c0.799,0.036,1.099,0.199,1.479,0.405c0.07,0.039,0.141,0.076,0.217,0.114L22.543,11.7c-0.162,0.025-0.285,0.165-0.285,0.332   c0,0.165,0.123,0.307,0.286,0.33l1.879,0.272c-0.218,0.06-0.474,0.134-0.737,0.226c-0.691,0.24-1.106,0.582-1.124,0.596   c-0.125,0.104-0.158,0.283-0.078,0.423c0.082,0.143,0.251,0.204,0.404,0.148c0.437-0.157,0.732-0.212,0.989-0.222   c-0.402,0.353-0.69,0.634-0.834,0.813c-0.073,0.096-0.145,0.191-0.21,0.291c-0.03-0.051-0.08-0.092-0.139-0.111   c-0.084-0.028-0.177-0.014-0.247,0.041c-0.529,0.41-0.952,0.855-1.255,1.324c-0.087,0.137-0.167,0.277-0.236,0.42   c-0.04-0.062-0.103-0.104-0.176-0.117c-0.087-0.014-0.176,0.017-0.237,0.08c-0.457,0.488-0.803,0.993-1.026,1.504   c-0.061,0.137-0.112,0.273-0.155,0.412c-0.045-0.044-0.104-0.069-0.169-0.073c-0.087-0.004-0.173,0.036-0.227,0.106   c-0.396,0.537-0.677,1.08-0.838,1.613c-0.042,0.14-0.077,0.281-0.104,0.422c-0.057-0.064-0.137-0.098-0.224-0.088   c-0.089,0.01-0.165,0.062-0.206,0.14c-0.312,0.589-0.509,1.167-0.588,1.718c-0.02,0.138-0.031,0.275-0.037,0.41   c-0.063-0.051-0.146-0.067-0.226-0.051c-0.087,0.021-0.158,0.081-0.188,0.164c-0.233,0.623-0.357,1.223-0.365,1.779   c-0.002,0.135,0.003,0.271,0.014,0.401c-0.066-0.039-0.147-0.047-0.222-0.021c-0.084,0.033-0.146,0.102-0.167,0.188   c-0.154,0.647-0.202,1.258-0.144,1.811c0.012,0.104,0.027,0.207,0.046,0.309c-0.039-0.002-0.079,0.004-0.116,0.021   c-0.081,0.035-0.142,0.106-0.157,0.194c-0.124,0.652-0.144,1.264-0.056,1.814c0.021,0.141,0.05,0.279,0.086,0.412   c-0.037,0.002-0.072,0.011-0.105,0.026c-0.081,0.039-0.135,0.115-0.146,0.205c-0.082,0.659-0.063,1.271,0.058,1.813   c0.025,0.118,0.057,0.235,0.094,0.348c-0.06-0.007-0.122,0.006-0.174,0.038c-0.076,0.049-0.122,0.13-0.124,0.22   c-0.011,0.665,0.072,1.271,0.25,1.799c0.052,0.152,0.111,0.302,0.18,0.442c-0.019-0.005-0.028-0.008-0.033-0.008   c-0.085-0.023-0.177,0-0.244,0.059c-0.066,0.062-0.098,0.149-0.083,0.238c0.104,0.656,0.293,1.236,0.56,1.728   c0.051,0.096,0.106,0.188,0.165,0.274c-0.047,0.012-0.09,0.037-0.124,0.072c-0.061,0.063-0.086,0.156-0.064,0.242   c0.152,0.647,0.384,1.215,0.688,1.684c0.072,0.111,0.149,0.219,0.229,0.32c-0.07,0.008-0.137,0.045-0.182,0.104   c-0.053,0.07-0.066,0.164-0.037,0.248c0.229,0.625,0.523,1.162,0.88,1.595c0.076,0.094,0.158,0.186,0.243,0.271   c-0.063,0.018-0.118,0.059-0.152,0.119c-0.044,0.078-0.049,0.172-0.008,0.252c0.301,0.596,0.656,1.094,1.061,1.479   c0.085,0.082,0.173,0.16,0.264,0.232c-0.059,0.025-0.107,0.072-0.134,0.135c-0.038,0.08-0.031,0.176,0.019,0.25   c0.36,0.562,0.769,1.021,1.211,1.363c0.132,0.104,0.271,0.199,0.412,0.283c-0.03,0.008-0.051,0.014-0.057,0.018   c-0.084,0.029-0.146,0.101-0.169,0.188c-0.02,0.088,0.004,0.18,0.067,0.244c0.458,0.477,0.933,0.856,1.408,1.127   c0.388,0.219,0.778,0.366,1.159,0.438c0.332,0.063,0.666,0.064,0.937,0.012c0.02-0.002,0.038-0.008,0.053-0.012   c0.822,0.578,1.693,1.063,2.588,1.441c0.751,0.315,1.523,0.561,2.292,0.725c0.162,0.035,0.316,0.064,0.462,0.09   c-0.319-0.121-0.653-0.301-0.88-0.576c-0.04-0.049-0.074-0.1-0.104-0.149c-0.531-0.144-1.06-0.324-1.577-0.545   c-0.858-0.361-1.689-0.824-2.479-1.377c0.004-0.015,0.007-0.025,0.007-0.029c0.014-0.268-0.017-0.535-0.088-0.801   c0.569,0.459,1.074,0.83,1.629,1.141c0.757,0.422,1.535,0.746,2.334,0.976c0.002-0.046,0.005-0.093,0.01-0.14   c0.016-0.137,0.054-0.26,0.112-0.371c-0.741-0.217-1.467-0.521-2.174-0.914c-1.514-0.844-2.875-2.055-4.045-3.596   c-0.408-0.539-0.787-1.109-1.133-1.707c0.898-0.397,2.9-1.299,4.652-2.201c0.01,0.078,0.03,0.154,0.063,0.229   c0.151,0.348,0.538,0.475,0.836,0.52c0.103,0.019,0.2,0.023,0.284,0.027c0.113,0.281,0.361,0.492,0.722,0.606   c0.143,0.046,0.279,0.068,0.391,0.082c0.062,0.158,0.166,0.289,0.308,0.386c0.343,0.231,0.825,0.203,1.102,0.157   c0.154,0.189,0.353,0.313,0.583,0.357c0.07,0.014,0.145,0.021,0.217,0.021c0.186,0,0.368-0.046,0.532-0.105v3.125   c0,0.229,0.185,0.414,0.412,0.414c0.229,0,0.413-0.186,0.413-0.414v-3.262c0.418,0.084,0.755,0.012,0.988-0.08   c0.188-0.074,0.33-0.17,0.425-0.246c0.404,0.072,0.771-0.039,1.045-0.318c0.098-0.098,0.168-0.203,0.22-0.291   c0.558,0.025,0.89-0.207,1.076-0.42c0.098-0.11,0.161-0.227,0.205-0.322c0.344-0.016,0.62-0.122,0.827-0.321   c0.104-0.101,0.176-0.211,0.227-0.318c1.417,1.098,3.619,2.068,4.616,2.48c-0.329,0.561-0.688,1.094-1.071,1.602   c-1.17,1.541-2.53,2.752-4.044,3.596c-0.707,0.394-1.434,0.697-2.177,0.916c0.061,0.109,0.099,0.232,0.112,0.369   c0.006,0.047,0.008,0.095,0.009,0.14c0.801-0.229,1.58-0.554,2.336-0.976c0.594-0.33,1.14-0.744,1.646-1.154   c-0.075,0.269-0.106,0.541-0.093,0.812c0,0.014,0.002,0.025,0.003,0.039c-0.241,0.186-0.882,0.646-1.816,1.104   c-0.704,0.345-1.433,0.617-2.168,0.814c-0.031,0.008-0.063,0.016-0.093,0.022c-0.027,0.041-0.057,0.084-0.09,0.125   c-0.23,0.281-0.573,0.464-0.899,0.582c0.408-0.063,0.814-0.147,1.22-0.256c0.769-0.205,1.53-0.492,2.264-0.852   c0.984-0.482,1.647-0.963,1.898-1.158c0.014,0.006,0.027,0.01,0.039,0.014c0.279,0.056,0.61,0.054,0.943-0.01   c0.382-0.07,0.771-0.219,1.16-0.438c0.475-0.269,0.949-0.648,1.408-1.125c0.063-0.064,0.088-0.156,0.065-0.244   c-0.021-0.088-0.083-0.158-0.168-0.188c-0.006-0.004-0.021-0.008-0.042-0.014c0.145-0.086,0.284-0.182,0.42-0.287   c0.442-0.344,0.851-0.803,1.21-1.363c0.048-0.073,0.057-0.17,0.02-0.25c-0.027-0.063-0.076-0.108-0.136-0.135   c0.092-0.072,0.18-0.15,0.266-0.231c0.402-0.388,0.76-0.888,1.06-1.48c0.041-0.08,0.037-0.174-0.008-0.252   c-0.042-0.07-0.111-0.117-0.191-0.129c0.094-0.092,0.184-0.189,0.268-0.293c0.355-0.433,0.651-0.969,0.879-1.594   c0.029-0.078,0.018-0.168-0.029-0.236c-0.047-0.07-0.125-0.115-0.208-0.117H44.66c0.078-0.096,0.151-0.195,0.222-0.303   c0.312-0.463,0.552-1.025,0.715-1.67c0.021-0.088-0.001-0.179-0.063-0.244c-0.055-0.06-0.134-0.09-0.213-0.086   c0.072-0.113,0.141-0.232,0.202-0.355C45.775,36.047,45.941,35.459,46.024,34.799 M45.712,32.73   c0.003,0.002,0.008,0.008,0.007,0.014c-0.033,0.452-0.118,0.869-0.25,1.236c-0.134,0.371-0.319,0.696-0.55,0.967   c-0.271,0.318-0.551,0.488-0.657,0.547c-0.003,0-0.005,0-0.007,0c-0.004,0-0.009,0-0.012-0.004   c-0.365-0.496-0.544-1.104-0.531-1.811c0.004-0.226,0.028-0.452,0.073-0.679c0.001-0.005,0.004-0.01,0.009-0.011   c0.004-0.001,0.011,0.001,0.016,0.005c0.326,0.4,0.506,0.928,0.508,0.933c0.026,0.077,0.094,0.129,0.174,0.135   c0.081,0.006,0.156-0.039,0.19-0.111c0.302-0.629,0.719-1.011,1.016-1.221C45.701,32.728,45.707,32.728,45.712,32.73    M45.661,30.364c0.003-0.003,0.01-0.005,0.014-0.002c0.006,0.002,0.009,0.007,0.009,0.012c0.013,0.454-0.029,0.878-0.125,1.257   c-0.097,0.383-0.248,0.725-0.451,1.017c-0.237,0.342-0.498,0.537-0.6,0.604c-0.002,0.002-0.005,0.002-0.007,0.002   c-0.003,0-0.008-0.002-0.011-0.004c-0.644-0.729-0.704-1.809-0.685-2.389c0.001-0.006,0.004-0.01,0.009-0.012   c0.006-0.005,0.012-0.001,0.015,0.003c0.351,0.378,0.579,0.838,0.582,0.843c0.035,0.07,0.106,0.114,0.188,0.109   c0.078-0.005,0.146-0.056,0.173-0.13C45.01,31.019,45.387,30.599,45.661,30.364 M45.405,27.961c0.004-0.004,0.01-0.006,0.015-0.004   c0.003,0.002,0.009,0.006,0.01,0.012c0.057,0.451,0.056,0.876-0.002,1.264c-0.06,0.39-0.177,0.745-0.35,1.056   c-0.208,0.371-0.452,0.592-0.547,0.67c-0.003,0.002-0.005,0.002-0.009,0.002c-0.002,0-0.006,0-0.008-0.002   c-0.637-0.526-0.828-1.668-0.887-2.301c-0.001-0.004,0.002-0.01,0.006-0.014c0.007-0.002,0.012-0.002,0.017,0.002   c0.372,0.338,0.639,0.761,0.642,0.766c0.042,0.066,0.119,0.103,0.197,0.09c0.078-0.012,0.141-0.067,0.161-0.145   C44.821,28.677,45.155,28.224,45.405,27.961 M45.027,25.677c0.004-0.004,0.009-0.006,0.014-0.004   c0.005,0.001,0.01,0.007,0.01,0.011c0.079,0.448,0.099,0.873,0.059,1.263c-0.041,0.393-0.142,0.753-0.299,1.069   c-0.188,0.373-0.415,0.604-0.506,0.688c-0.002,0.002-0.007,0.003-0.01,0.003s-0.006,0-0.009-0.003   c-0.535-0.453-0.79-1.118-0.909-1.598c-0.054-0.215-0.093-0.441-0.116-0.67c0-0.005,0.003-0.011,0.008-0.015   c0.005-0.003,0.011-0.002,0.015,0.002c0.398,0.322,0.697,0.748,0.7,0.752c0.045,0.066,0.124,0.099,0.201,0.082   c0.077-0.016,0.138-0.075,0.153-0.151C44.478,26.421,44.79,25.951,45.027,25.677 M26.785,25.824   c0.005-0.029,0.011-0.061,0.018-0.092c0.313-1.572,0.929-2.646,1.391-3.269c0.347-0.466,0.661-0.758,0.815-0.889   c0.051-0.037,0.101-0.076,0.148-0.117c0.152-0.131,0.175-0.354,0.052-0.514c-0.121-0.157-0.345-0.191-0.509-0.078   c-0.016,0.01-0.071,0.05-0.158,0.122c-0.35,0.244-0.549,0.165-0.603,0.136c-0.113-0.063-0.161-0.215-0.129-0.401   c0.058-0.341,0.44-0.793,0.583-0.938c0.006-0.007,0.012-0.013,0.019-0.021c0.772-0.91,2.001-0.931,2.013-0.931   c0.013,0,0.024,0,0.036-0.001c0.003,0,0.387-0.031,0.866,0.126c0.658,0.217,1.167,0.668,1.513,1.342   c0.485,0.941,0.853,1.896,1.125,2.908c-0.686-0.244-1.229-0.688-1.235-0.691c-0.159-0.133-0.396-0.108-0.527,0.05   c-0.063,0.078-0.093,0.174-0.083,0.272c0.009,0.101,0.056,0.189,0.133,0.254c0.036,0.029,0.884,0.725,1.913,0.953   c0.072,0.345,0.139,0.705,0.206,1.126c-0.33-0.167-0.717-0.271-1.034-0.354c-0.217-0.058-0.422-0.112-0.58-0.175   c-0.702-0.282-1.299-0.749-1.305-0.755c-0.162-0.128-0.397-0.101-0.526,0.062c-0.128,0.163-0.101,0.399,0.062,0.526   c0.028,0.021,0.688,0.541,1.492,0.86c0.202,0.082,0.428,0.144,0.668,0.205c0.89,0.235,1.292,0.416,1.312,0.857   c-0.025,0.067-0.063,0.131-0.111,0.184c-0.283,0.31-0.909,0.34-1.124,0.327c-0.01-0.001-0.018-0.002-0.026-0.002H32.36   c-0.164-0.003-1.021-0.038-1.758-0.514C28.709,25.174,27.848,25.366,26.785,25.824 M30.013,26.909h-2.553   c-0.261,0-0.441-0.063-0.551-0.196c-0.021-0.028-0.042-0.061-0.061-0.096C27.918,26.131,28.481,25.959,30.013,26.909    M31.043,31.522v-3.897h1.319c0.007,0,0.014,0,0.018,0c0.009,0,0.013,0,0.015,0h0.793c0.02,0,0.059,0.002,0.112,0.002   c0.111,0,0.288-0.006,0.486-0.037c0.472-0.075,0.836-0.25,1.085-0.52c0.104-0.112,0.211-0.271,0.278-0.485   c0.008-0.021,0.014-0.04,0.018-0.062c0.05-0.188,0.068-0.412,0.029-0.682l-0.012-0.073c-0.229-1.544-0.511-3.468-1.708-5.796   c-1.001-1.949-2.858-1.869-3.068-1.854c-0.175,0.004-1.585,0.063-2.534,1.173c-0.102,0.104-0.667,0.712-0.77,1.311   c-0.083,0.489,0.101,0.929,0.481,1.145c0.062,0.035,0.125,0.063,0.191,0.084c-0.596,0.742-1.319,1.96-1.677,3.762   c-0.061,0.304-0.073,0.582-0.04,0.834c0,0.021,0.003,0.041,0.008,0.063c0.043,0.267,0.139,0.499,0.289,0.679   c0.171,0.209,0.501,0.459,1.103,0.459h2.756v3.897v2.382c-0.722-0.021-1.273,0.258-1.96,0.742c-0.975,0.649-4.258,1.299-9.76,1.926   c-0.386-1.627-0.582-3.318-0.582-5.05c0-2.282,0.338-4.495,1.008-6.577c0.645-2.008,1.565-3.812,2.739-5.356   c1.17-1.542,2.531-2.751,4.045-3.595c1.561-0.87,3.217-1.311,4.924-1.311s3.364,0.439,4.925,1.311   c1.514,0.844,2.874,2.053,4.044,3.595c1.174,1.546,2.096,3.35,2.74,5.356c0.668,2.082,1.008,4.295,1.008,6.577   c0,1.756-0.201,3.474-0.601,5.12c-3.348-0.191-7.306-1.435-7.426-1.472c-0.28-0.096-0.538-0.188-0.765-0.271   c-0.829-0.299-1.431-0.517-2.135-0.483c-0.041,0.002-0.083,0.004-0.122,0.005c-0.404-0.197-0.762-0.335-1.257-0.424L31.043,31.522   L31.043,31.522z M36.244,13.912c-0.202,0.079-0.519,0.188-0.875,0.254c-0.226,0.043-0.439,0.063-0.643,0.063   c-0.48,0-0.894-0.119-1.23-0.355c-0.003-0.002-0.006-0.008-0.006-0.013c0-0.004,0.003-0.009,0.007-0.01   c0.154-0.089,0.404-0.21,0.726-0.286c0.344-0.08,0.693-0.092,1.043-0.031c0.327,0.055,0.656,0.174,0.979,0.354   c0.004,0.002,0.006,0.008,0.006,0.012C36.252,13.904,36.25,13.908,36.244,13.912 M36.725,15.267   c0.003,0.004,0.005,0.008,0.004,0.012c-0.001,0.006-0.005,0.009-0.01,0.012c-0.139,0.047-0.36,0.106-0.633,0.117   c-0.031,0.002-0.063,0.002-0.095,0.002c-0.569,0-1.127-0.209-1.658-0.623c-0.005-0.002-0.006-0.007-0.005-0.012   c0-0.006,0.004-0.01,0.01-0.012c0.238-0.074,0.479-0.121,0.716-0.136C35.724,14.588,36.286,14.802,36.725,15.267 M34.093,13.158   c-0.223,0.104-0.612,0.244-1.194,0.314c-0.08,0.01-0.147,0.068-0.167,0.147c-0.021,0.08,0.013,0.162,0.081,0.209   c0.004,0.003,0.455,0.314,0.782,0.729c0.004,0.005,0.004,0.009,0.001,0.015c-0.002,0.004-0.007,0.008-0.013,0.008l0,0   c-0.547-0.018-1.578-0.178-2.313-1.055c-0.005-0.006-0.005-0.016,0.001-0.021c0.116-0.11,0.319-0.269,0.632-0.386   c0.587-0.222,1.343-0.218,2.188,0.012c0.005,0.002,0.01,0.007,0.01,0.013C34.101,13.15,34.098,13.154,34.093,13.158 M31.634,12.755   c-0.193,0.152-0.547,0.37-1.12,0.546c-0.082,0.023-0.139,0.099-0.141,0.183s0.048,0.161,0.127,0.189   c0.005,0.002,0.494,0.188,0.889,0.521c0.005,0.003,0.006,0.009,0.005,0.014s-0.007,0.009-0.013,0.011   c-0.139,0.013-0.304,0.022-0.489,0.022c-0.593,0-1.368-0.104-1.97-0.561c-0.006-0.006-0.007-0.015-0.002-0.02   c0.092-0.132,0.259-0.326,0.538-0.504c0.534-0.337,1.284-0.484,2.169-0.426c0.004,0,0.011,0.004,0.013,0.01   C31.641,12.745,31.639,12.752,31.634,12.755 M29.108,12.797c-0.146,0.195-0.438,0.488-1.013,0.773   c-0.077,0.037-0.12,0.118-0.108,0.203c0.012,0.084,0.076,0.149,0.159,0.166c0.004,0.001,0.52,0.099,0.979,0.329   c0.005,0.003,0.008,0.009,0.007,0.014c0,0.006-0.004,0.009-0.009,0.013c-0.216,0.07-0.435,0.125-0.65,0.164   c-0.196,0.035-0.43,0.062-0.681,0.062c-0.374,0-0.787-0.059-1.178-0.24c-0.007-0.002-0.01-0.011-0.007-0.018   c0.059-0.147,0.18-0.373,0.414-0.604c0.456-0.452,1.172-0.757,2.072-0.882c0.005-0.002,0.011,0,0.014,0.006   C29.111,12.786,29.111,12.793,29.108,12.797 M25.855,14.347c-0.063,0.053-0.085,0.141-0.057,0.217s0.104,0.128,0.186,0.128h0.001   c0.001,0,0.218-0.001,0.504,0.036c0.192,0.024,0.371,0.063,0.528,0.11c0.005,0,0.009,0.006,0.009,0.012   c0.001,0.007-0.002,0.012-0.008,0.015c-0.204,0.104-0.415,0.191-0.625,0.266c-0.461,0.159-0.858,0.213-1.188,0.213   c-0.286,0-0.52-0.041-0.698-0.092c-0.008-0.002-0.011-0.009-0.011-0.017c0.084-0.415,0.469-1.442,2.229-2.038   c0.005-0.003,0.011-0.002,0.015,0.002c0.003,0.004,0.005,0.011,0.003,0.016C26.629,13.48,26.382,13.894,25.855,14.347    M43.815,24.872c0.046-0.695,0.29-1.203,0.487-1.507c0.002-0.006,0.009-0.008,0.013-0.006c0.006,0,0.009,0.004,0.011,0.008   c0.14,0.436,0.217,0.852,0.231,1.242c0.015,0.395-0.037,0.766-0.149,1.102c-0.133,0.396-0.328,0.656-0.406,0.75   c-0.003,0.003-0.007,0.004-0.01,0.004s-0.006-0.001-0.008-0.002c-0.496-0.311-0.881-0.807-1.141-1.472   c-0.08-0.204-0.146-0.42-0.197-0.642c-0.001-0.007,0.001-0.012,0.005-0.015c0.004-0.004,0.01-0.004,0.016-0.001   c0.444,0.266,0.804,0.653,0.808,0.657c0.053,0.059,0.136,0.078,0.211,0.053C43.759,25.019,43.81,24.951,43.815,24.872    M43.031,22.691c-0.027-0.695,0.163-1.227,0.328-1.547c0.001-0.005,0.005-0.009,0.012-0.009c0.005,0,0.011,0.005,0.013,0.009   c0.184,0.418,0.306,0.825,0.358,1.213c0.056,0.391,0.045,0.764-0.033,1.109c-0.091,0.406-0.258,0.686-0.327,0.785   c-0.002,0.005-0.007,0.007-0.011,0.007c-0.002,0-0.004,0-0.006-0.002c-0.527-0.26-0.961-0.713-1.29-1.349   c-0.101-0.194-0.188-0.401-0.261-0.616c-0.002-0.006,0-0.012,0.003-0.016c0.003-0.003,0.01-0.004,0.015-0.002   c0.467,0.218,0.867,0.567,0.871,0.572c0.061,0.053,0.145,0.063,0.215,0.028C42.99,22.844,43.033,22.771,43.031,22.691    M41.934,20.844L41.934,20.844c0.068-0.042,0.107-0.121,0.096-0.201c-0.11-0.688,0.017-1.234,0.142-1.573   c0.003-0.005,0.009-0.008,0.013-0.008c0.006,0,0.011,0.002,0.013,0.006c0.231,0.395,0.4,0.786,0.5,1.166   c0.1,0.381,0.132,0.754,0.096,1.104c-0.042,0.414-0.176,0.709-0.23,0.817c-0.002,0.005-0.007,0.007-0.013,0.007   c-0.001,0-0.003,0-0.005-0.001c-0.593-0.206-1.091-0.611-1.478-1.204c-0.125-0.188-0.233-0.393-0.324-0.604   c-0.001-0.005-0.001-0.012,0.002-0.016c0.003-0.005,0.009-0.006,0.016-0.006c0.508,0.146,0.946,0.491,0.951,0.494   C41.774,20.877,41.865,20.883,41.934,20.844 M40.458,18.953c0.068,0.048,0.16,0.047,0.229-0.002   c0.067-0.05,0.098-0.138,0.072-0.218c-0.189-0.614-0.159-1.188-0.1-1.56c0.001-0.007,0.005-0.011,0.01-0.012   c0.004-0.001,0.012,0.001,0.015,0.005c0.285,0.347,0.509,0.699,0.666,1.051c0.161,0.362,0.254,0.726,0.274,1.077   c0.024,0.399-0.049,0.698-0.096,0.844c-0.002,0.006-0.007,0.009-0.014,0.009c0,0-0.001,0-0.002-0.001   c-0.58-0.107-1.123-0.428-1.614-0.949c-0.164-0.174-0.315-0.364-0.452-0.566c-0.003-0.004-0.003-0.01,0-0.015   c0.002-0.005,0.008-0.007,0.013-0.007C40.015,18.649,40.453,18.95,40.458,18.953 M38.984,17.267   c0.076,0.028,0.164,0.01,0.218-0.052c0.055-0.061,0.066-0.149,0.029-0.223c-0.321-0.617-0.376-1.174-0.364-1.534   c0-0.005,0.003-0.01,0.007-0.012c0.006-0.003,0.013-0.002,0.016,0.002c0.334,0.296,0.608,0.608,0.819,0.934   c0.214,0.331,0.365,0.676,0.446,1.024c0.097,0.414,0.07,0.742,0.055,0.865c-0.001,0.008-0.007,0.013-0.015,0.013   c-0.011,0-0.021,0.001-0.032,0.001c-0.657,0-1.261-0.359-1.656-0.662c-0.194-0.149-0.385-0.322-0.565-0.511   c-0.002-0.003-0.005-0.009-0.002-0.015c0.002-0.006,0.006-0.009,0.013-0.009c0.024-0.001,0.049-0.002,0.074-0.002   C38.52,17.09,38.98,17.265,38.984,17.267 M38.4,15.735c0.156,0.396,0.174,0.771,0.17,0.961c0,0.007-0.005,0.013-0.012,0.013   c-0.035,0.002-0.07,0.004-0.104,0.004c-0.81,0-1.751-0.544-2.252-0.876c-0.005-0.005-0.006-0.01-0.005-0.015   c0-0.006,0.005-0.01,0.01-0.012c0.513-0.099,1,0.014,1.006,0.016c0.082,0.021,0.167-0.016,0.211-0.086   c0.047-0.071,0.041-0.163-0.012-0.229c-0.319-0.399-0.518-0.86-0.627-1.178c-0.001-0.005,0-0.011,0.003-0.015   c0.004-0.005,0.01-0.005,0.015-0.003C37.598,14.581,38.136,15.058,38.4,15.735 M23.725,13.346c0.039-0.017,0.078-0.029,0.115-0.042   c0.478-0.167,0.93-0.276,1.157-0.328c0.526-0.117,0.896-0.351,0.91-0.359c0.047-0.029,0.072-0.086,0.06-0.143   c-0.011-0.054-0.055-0.097-0.11-0.104l-2.333-0.34l2.332-0.342c0.063-0.011,0.114-0.066,0.114-0.133   c0-0.067-0.05-0.125-0.114-0.136c-0.005,0-0.507-0.078-1.032-0.313c-0.153-0.069-0.288-0.145-0.409-0.208   c-0.206-0.112-0.404-0.219-0.668-0.303c0.042,0.001,0.083,0.002,0.124,0.005c0.506,0.028,0.965,0.101,1.193,0.142   c0.532,0.094,0.961,0.021,0.979,0.018c0.056-0.01,0.101-0.053,0.109-0.106c0.011-0.057-0.015-0.113-0.063-0.142L24.066,9.31   l2.285,0.572c0.065,0.018,0.132-0.019,0.157-0.078c0.026-0.063,0.003-0.133-0.056-0.167c-0.004-0.004-0.437-0.266-0.831-0.686   c-0.115-0.122-0.207-0.236-0.299-0.35c-0.147-0.183-0.289-0.359-0.501-0.537c0.039,0.018,0.076,0.035,0.112,0.053   c0.454,0.221,0.852,0.463,1.048,0.588c0.456,0.289,0.88,0.388,0.896,0.394c0.056,0.012,0.112-0.013,0.144-0.06   c0.03-0.048,0.028-0.108-0.005-0.154l-1.412-1.883L27.5,8.405c0.054,0.038,0.129,0.033,0.175-0.014   c0.049-0.048,0.055-0.122,0.014-0.175c-0.03-0.044-0.311-0.436-0.504-0.951c-0.06-0.157-0.102-0.3-0.143-0.438   c-0.065-0.225-0.13-0.438-0.257-0.687c0.029,0.029,0.057,0.062,0.083,0.091c0.336,0.379,0.61,0.756,0.744,0.946   c0.299,0.428,0.64,0.679,0.679,0.704c0.046,0.032,0.106,0.033,0.154,0.001c0.046-0.03,0.068-0.09,0.054-0.145l-0.586-2.277   l1.217,2.021c0.033,0.057,0.104,0.08,0.166,0.055c0.063-0.025,0.096-0.091,0.08-0.157c-0.005-0.021-0.12-0.507-0.102-1.072   c0.006-0.166,0.021-0.314,0.036-0.457c0.024-0.232,0.05-0.457,0.026-0.733c0.016,0.038,0.029,0.078,0.042,0.116   c0.166,0.477,0.273,0.93,0.325,1.158c0.112,0.51,0.331,0.87,0.355,0.91c0.029,0.05,0.087,0.071,0.143,0.063   c0.055-0.012,0.097-0.059,0.104-0.114l0.325-2.31l0.338,2.311c0.011,0.066,0.067,0.115,0.135,0.115   c0.065,0,0.123-0.049,0.132-0.115c0.003-0.02,0.08-0.51,0.313-1.031c0.069-0.15,0.139-0.28,0.208-0.407   c0.112-0.207,0.221-0.406,0.304-0.67c-0.001,0.041-0.002,0.084-0.005,0.124c-0.03,0.504-0.101,0.966-0.142,1.193   c-0.092,0.53-0.02,0.961-0.017,0.979c0.009,0.055,0.053,0.1,0.107,0.108c0.055,0.011,0.111-0.016,0.141-0.063l1.205-2.021   l-0.573,2.281c-0.017,0.064,0.017,0.133,0.078,0.158c0.062,0.024,0.133,0.002,0.168-0.058c0.027-0.045,0.283-0.453,0.684-0.83   c0.12-0.112,0.233-0.205,0.35-0.299c0.182-0.147,0.357-0.291,0.534-0.503c-0.016,0.038-0.032,0.075-0.052,0.112   c-0.219,0.455-0.461,0.854-0.587,1.049c-0.286,0.452-0.387,0.88-0.39,0.898c-0.014,0.055,0.011,0.11,0.058,0.143   c0.048,0.03,0.109,0.028,0.154-0.006l1.884-1.407l-1.403,1.892c-0.04,0.054-0.033,0.126,0.015,0.175   c0.046,0.047,0.121,0.053,0.175,0.014c0.004-0.004,0.415-0.303,0.951-0.507c0.154-0.058,0.295-0.101,0.437-0.142   c0.226-0.066,0.441-0.131,0.688-0.259c-0.03,0.027-0.061,0.058-0.091,0.084c-0.378,0.334-0.756,0.609-0.945,0.744   c-0.439,0.309-0.695,0.663-0.705,0.679c-0.033,0.047-0.033,0.107-0.001,0.154c0.032,0.046,0.09,0.067,0.145,0.055L37.2,9.31   l-2.019,1.211c-0.058,0.034-0.08,0.104-0.057,0.167c0.026,0.062,0.093,0.095,0.158,0.079c0.052-0.015,0.525-0.121,1.071-0.104   c0.169,0.006,0.314,0.021,0.458,0.037c0.232,0.024,0.458,0.049,0.733,0.025c-0.039,0.015-0.078,0.026-0.115,0.043   c-0.479,0.164-0.932,0.272-1.159,0.323c-0.528,0.117-0.896,0.349-0.911,0.356c-0.048,0.029-0.072,0.087-0.061,0.142   c0.013,0.056,0.057,0.099,0.112,0.105l2.327,0.334l-2.33,0.348c-0.064,0.011-0.114,0.066-0.114,0.133   c0,0.067,0.05,0.123,0.114,0.135c0.053,0.009,0.528,0.089,1.03,0.316c0.15,0.068,0.281,0.14,0.41,0.209   c0.206,0.111,0.403,0.221,0.667,0.304c-0.042,0-0.083-0.002-0.125-0.005c-0.504-0.03-0.963-0.104-1.193-0.145l-0.061-0.01   c-0.423-0.186-0.855-0.279-1.287-0.283c-0.001-0.004-0.002-0.01-0.003-0.013c-0.021-0.091-0.085-0.161-0.173-0.192   c-0.633-0.22-1.227-0.333-1.766-0.337c-0.198-0.001-0.385,0.012-0.567,0.04c-0.004-0.025-0.012-0.049-0.021-0.072   c-0.04-0.08-0.117-0.133-0.205-0.145c-0.666-0.088-1.271-0.08-1.798,0.024c-0.21,0.039-0.41,0.099-0.596,0.17   c-0.007-0.057-0.03-0.11-0.07-0.153c-0.056-0.062-0.134-0.09-0.217-0.084c-0.668,0.055-1.257,0.19-1.75,0.404   c-0.132,0.059-0.259,0.12-0.377,0.189c-0.009-0.069-0.042-0.134-0.096-0.179c-0.067-0.056-0.157-0.073-0.239-0.052   c-0.652,0.181-1.212,0.431-1.666,0.744l-0.027,0.021c-0.125,0.008-0.246,0.009-0.363,0.006c-0.097-0.003-0.424-0.031-0.457-0.036   C24.226,13.344,24.001,13.322,23.725,13.346 M24.354,14.022c0.003-0.003,0.01-0.003,0.014-0.001   c0.004,0.004,0.008,0.008,0.008,0.014c-0.022,0.357-0.13,0.906-0.514,1.496c-0.043,0.066-0.042,0.152,0.003,0.217   c0.044,0.066,0.124,0.099,0.201,0.081c0.005,0,0.507-0.099,1.014-0.06c0.006,0,0.012,0.005,0.013,0.01   c0.002,0.005,0,0.01-0.004,0.014c-0.438,0.351-1.299,0.922-2.22,0.922c-0.032,0-0.064,0-0.098-0.002   c-0.007,0-0.014-0.006-0.014-0.012C22.733,16.258,22.84,15.111,24.354,14.022 M21.148,17.419c0.078-0.346,0.227-0.688,0.442-1.021   c0.217-0.329,0.5-0.648,0.848-0.952c0.003-0.003,0.01-0.005,0.013-0.002c0.005,0.002,0.009,0.007,0.009,0.013   c0.013,0.357-0.042,0.914-0.364,1.537c-0.038,0.072-0.028,0.158,0.023,0.219c0.052,0.063,0.137,0.084,0.213,0.06   c0.004-0.002,0.481-0.163,0.986-0.181c0.005,0.001,0.012,0.003,0.014,0.009s0.001,0.012-0.003,0.016   c-0.188,0.189-0.386,0.36-0.581,0.512c-0.4,0.31-0.991,0.668-1.558,0.668c-0.022,0-0.045-0.002-0.067-0.002   c-0.007,0-0.013-0.006-0.013-0.012C21.092,18.16,21.055,17.834,21.148,17.419 M20.629,17.148c0.004-0.006,0.01-0.007,0.015-0.007   c0.006,0.002,0.01,0.007,0.011,0.013c0.069,0.352,0.104,0.909-0.115,1.575c-0.025,0.081,0.002,0.169,0.069,0.22   c0.066,0.051,0.159,0.053,0.229,0.004c0.004-0.002,0.437-0.295,0.984-0.34c0.005-0.002,0.01,0.002,0.013,0.006   c0.002,0.005,0.002,0.01-0.001,0.014c-0.354,0.499-1.094,1.357-2.048,1.519c0,0-0.001,0-0.002,0c-0.006,0-0.011-0.003-0.014-0.008   C19.632,19.719,19.437,18.582,20.629,17.148 M18.575,20.224c0.116-0.375,0.3-0.759,0.548-1.144   c0.003-0.004,0.009-0.007,0.015-0.006c0.005,0,0.009,0.004,0.01,0.01c0.113,0.341,0.215,0.893,0.078,1.58   c-0.018,0.085,0.021,0.169,0.1,0.211c0.076,0.042,0.169,0.028,0.232-0.032c0.003-0.005,0.404-0.393,0.96-0.47   c0.005-0.001,0.01,0.001,0.013,0.005c0.003,0.005,0.003,0.011,0,0.016c-0.075,0.155-0.204,0.396-0.384,0.645   c-0.423,0.578-0.927,0.955-1.498,1.122c-0.001,0.001-0.002,0.001-0.004,0.001c-0.005,0-0.011-0.002-0.014-0.008   c-0.051-0.111-0.172-0.412-0.197-0.828C18.411,20.972,18.46,20.602,18.575,20.224 M17.467,22.349   c0.059-0.389,0.184-0.795,0.37-1.211c0.002-0.006,0.008-0.009,0.014-0.009s0.011,0.003,0.013,0.009   c0.163,0.319,0.347,0.851,0.313,1.553c-0.003,0.079,0.04,0.15,0.111,0.186s0.155,0.023,0.216-0.027   c0.018-0.016,0.436-0.374,0.921-0.583c0.006-0.003,0.012-0.002,0.016,0.002c0.005,0.002,0.006,0.01,0.005,0.014   c-0.05,0.197-0.122,0.391-0.212,0.578c-0.298,0.606-0.771,1.075-1.404,1.389c-0.002,0.003-0.004,0.003-0.007,0.003   c-0.004,0-0.008-0.003-0.011-0.007c-0.083-0.125-0.233-0.396-0.316-0.785C17.416,23.113,17.408,22.74,17.467,22.349 M16.866,23.344   c0.001-0.006,0.005-0.01,0.011-0.011s0.012,0.002,0.015,0.007c0.2,0.3,0.451,0.802,0.507,1.501c0.006,0.079,0.06,0.147,0.137,0.173   c0.076,0.023,0.159,0,0.21-0.063c0.003-0.004,0.355-0.42,0.841-0.697c0.004-0.002,0.012-0.002,0.015,0.002   c0.004,0.002,0.008,0.009,0.006,0.013c-0.023,0.209-0.068,0.417-0.135,0.616c-0.217,0.658-0.626,1.181-1.219,1.552   c-0.003,0-0.005,0.002-0.008,0.002c-0.004,0-0.007-0.002-0.011-0.005c-0.079-0.094-0.279-0.352-0.417-0.743   c-0.116-0.334-0.173-0.705-0.164-1.101C16.661,24.201,16.733,23.781,16.866,23.344 M16.186,25.654   c0.001-0.006,0.005-0.01,0.011-0.012c0.004-0.001,0.01,0,0.014,0.004c0.237,0.274,0.55,0.744,0.689,1.428   c0.016,0.077,0.076,0.137,0.153,0.152c0.077,0.017,0.156-0.017,0.201-0.08c0.014-0.02,0.319-0.455,0.729-0.775   c0.004-0.004,0.009-0.004,0.014-0.002s0.008,0.008,0.007,0.012c-0.009,0.207-0.038,0.414-0.084,0.615   c-0.152,0.67-0.48,1.232-0.973,1.672c-0.002,0.002-0.006,0.003-0.008,0.003c-0.004,0-0.007-0.001-0.011-0.003   c-0.11-0.102-0.324-0.327-0.501-0.683c-0.157-0.317-0.259-0.677-0.299-1.069C16.089,26.527,16.109,26.101,16.186,25.654    M15.838,27.969c0.001-0.006,0.005-0.01,0.011-0.012c0.004,0,0.011,0,0.014,0.004c0.25,0.265,0.584,0.717,0.756,1.396   c0.021,0.078,0.089,0.139,0.172,0.146c0.083,0.009,0.162-0.037,0.197-0.11c0.002-0.004,0.219-0.455,0.614-0.81   c0.003-0.003,0.009-0.004,0.014-0.002s0.009,0.008,0.009,0.013c-0.001,0.236-0.021,0.471-0.058,0.695   c-0.116,0.707-0.393,1.265-0.821,1.661c-0.001,0.002-0.005,0.004-0.009,0.004c-0.003,0-0.006-0.002-0.008-0.003   c-0.096-0.079-0.334-0.3-0.538-0.663c-0.172-0.311-0.291-0.666-0.35-1.056C15.783,28.844,15.781,28.42,15.838,27.969 M15.646,30.4   c0.001-0.005,0.003-0.01,0.008-0.012c0.005-0.003,0.011-0.003,0.015,0.003c0.049,0.046,0.1,0.096,0.147,0.146   c0.215,0.23,0.51,0.625,0.695,1.199c0.026,0.086,0.109,0.141,0.2,0.135c0.092-0.006,0.166-0.074,0.182-0.164   c0.001-0.004,0.087-0.496,0.502-0.873c0.003-0.005,0.009-0.006,0.014-0.004c0.005,0.001,0.009,0.006,0.009,0.01   c0.043,0.275,0.08,0.697,0.003,1.148c-0.092,0.541-0.319,0.989-0.677,1.334c-0.003,0.004-0.006,0.004-0.01,0.004   c-0.002,0-0.005,0-0.007-0.002C16.364,33.064,15.53,32.256,15.646,30.4 M15.552,32.76c0.005-0.002,0.01-0.002,0.015,0.004   c0.054,0.042,0.108,0.085,0.162,0.13c0.237,0.207,0.573,0.569,0.818,1.121c0.031,0.071,0.102,0.116,0.179,0.116   c0.002,0,0.002,0,0.004,0c0.078-0.002,0.148-0.049,0.179-0.122c0.002-0.005,0.215-0.521,0.563-0.931   c0.003-0.004,0.008-0.006,0.013-0.005c0.006,0.003,0.01,0.006,0.011,0.011c0.107,0.497,0.179,1.48-0.558,2.478   c-0.003,0.004-0.008,0.006-0.012,0.006c-0.003,0-0.005,0-0.007-0.002c-0.385-0.226-1.293-0.945-1.373-2.79   C15.545,32.767,15.547,32.763,15.552,32.76 M15.674,35.217c-0.002-0.004,0.001-0.01,0.006-0.014   c0.004-0.004,0.01-0.004,0.016-0.002c0.322,0.166,0.79,0.482,1.183,1.066c0.044,0.063,0.124,0.098,0.201,0.082   c0.078-0.015,0.139-0.072,0.155-0.15l0.014,0.004l-0.014-0.004c0.005-0.023,0.131-0.576,0.399-1.031   c0.004-0.002,0.01-0.006,0.014-0.006c0.005,0,0.01,0.004,0.012,0.008c0.096,0.201,0.167,0.412,0.213,0.627   c0.143,0.668,0.031,1.316-0.33,1.933c-0.002,0.004-0.007,0.006-0.012,0.006c-0.001,0-0.002,0-0.005,0   c-0.115-0.041-0.418-0.17-0.736-0.449c-0.268-0.234-0.499-0.531-0.686-0.879C15.917,36.06,15.773,35.66,15.674,35.217    M16.23,37.496c-0.001-0.006,0-0.01,0.004-0.014s0.01-0.004,0.014-0.002c0.063,0.024,0.127,0.055,0.188,0.088   c0.281,0.141,0.696,0.412,1.071,0.889c0.05,0.062,0.131,0.088,0.206,0.066c0.075-0.021,0.133-0.084,0.144-0.162   c0.001-0.004,0.08-0.545,0.303-1.016c0.002-0.007,0.007-0.009,0.012-0.009c0.007,0,0.011,0.002,0.013,0.009   c0.231,0.504,0.55,1.506,0.093,2.518c-0.002,0.006-0.007,0.008-0.013,0.008c-0.001,0-0.002,0-0.003,0   C17.831,39.748,16.768,39.271,16.23,37.496 M17.603,40.873c-0.248-0.305-0.464-0.67-0.646-1.086   c-0.002-0.006-0.001-0.012,0.002-0.014c0.003-0.006,0.011-0.006,0.016-0.006c0.063,0.02,0.13,0.041,0.195,0.065   c0.296,0.109,0.741,0.332,1.168,0.763c0.057,0.055,0.14,0.071,0.213,0.043c0.073-0.029,0.121-0.101,0.123-0.179   c0-0.006,0.016-0.539,0.18-1.028c0.001-0.007,0.006-0.011,0.012-0.011c0.006-0.002,0.011,0.002,0.013,0.006   c0.112,0.195,0.207,0.398,0.283,0.605c0.247,0.662,0.281,1.293,0.104,1.871c-0.002,0.006-0.008,0.01-0.014,0.01H19.25   c-0.121-0.02-0.44-0.09-0.804-0.305C18.137,41.427,17.854,41.181,17.603,40.873 M17.939,41.955   c-0.003-0.006-0.003-0.012,0.001-0.016c0.002-0.004,0.007-0.006,0.013-0.006c0.356,0.061,0.899,0.225,1.452,0.664   c0.063,0.051,0.148,0.057,0.218,0.018c0.071-0.039,0.109-0.115,0.102-0.195c-0.003-0.02-0.057-0.504,0.051-1.02   c0.002-0.004,0.006-0.008,0.011-0.01c0.005,0,0.011,0.002,0.014,0.006c0.133,0.188,0.249,0.389,0.348,0.588   c0.219,0.44,0.452,1.111,0.333,1.809c0,0.006-0.007,0.01-0.014,0.01h-0.001c-0.151-0.006-0.463-0.045-0.833-0.209   c-0.327-0.145-0.639-0.356-0.924-0.635C18.427,42.683,18.167,42.347,17.939,41.955 M22.469,45.898c-0.002-0.006-0.197-0.479-0.24-1   c-0.001-0.004,0.002-0.01,0.008-0.013c0.003-0.004,0.009-0.002,0.014,0c0.458,0.386,1.223,1.188,1.173,2.248   c0,0.007-0.004,0.013-0.012,0.013c-0.054,0.01-0.162,0.022-0.306,0.022c-0.129,0-0.289-0.012-0.468-0.047   c-0.661-0.133-1.339-0.521-2.017-1.154c-0.003-0.004-0.005-0.01-0.003-0.016c0.002-0.004,0.006-0.008,0.012-0.01   c0.36-0.045,0.928-0.045,1.585,0.213c0.074,0.029,0.157,0.012,0.213-0.045C22.484,46.054,22.5,45.969,22.469,45.898 M20.683,44.48   c0.067,0.043,0.154,0.041,0.221-0.008c0.065-0.048,0.095-0.13,0.075-0.207c-0.001-0.007-0.122-0.49-0.064-1.013   c0.001-0.006,0.004-0.01,0.009-0.01c0.006-0.002,0.013,0,0.015,0.004c0.375,0.453,0.997,1.354,0.938,2.31   c0,0.006-0.005,0.014-0.013,0.014c-0.026,0-0.057,0.002-0.093,0.002c-0.169,0-0.438-0.021-0.757-0.125   c-0.343-0.111-0.675-0.291-0.986-0.537c-0.309-0.244-0.604-0.553-0.872-0.92c-0.002-0.004-0.002-0.01-0.001-0.014   c0.003-0.007,0.006-0.009,0.014-0.009C19.531,43.992,20.087,44.099,20.683,44.48 M28.379,39.316   c-0.063,0.043-0.123,0.086-0.18,0.125c-0.42,0.295-0.682,0.606-0.778,0.932c-0.055-0.012-0.105-0.024-0.154-0.041   c-0.322-0.104-0.337-0.268-0.343-0.328c-0.011-0.168,0.078-0.315,0.322-0.551c0.287-0.277,0.526-0.412,0.734-0.412   c0.074,0,0.145,0.021,0.212,0.053c0.102,0.05,0.167,0.107,0.185,0.162C28.383,39.273,28.384,39.295,28.379,39.316 M28.784,40.939   c-0.129,0.02-0.477,0.061-0.65-0.06c-0.041-0.026-0.084-0.071-0.098-0.186c-0.028-0.273,0.326-0.566,0.54-0.715   c0.334-0.236,0.563-0.367,0.75-0.367c0.095,0,0.178,0.033,0.259,0.104c0.068,0.06,0.104,0.113,0.101,0.154   c-0.004,0.088-0.115,0.219-0.217,0.299C29.138,40.398,28.914,40.65,28.784,40.939 M30.453,40.996   c-0.127,0.098-0.556,0.365-0.863,0.305c-0.05-0.01-0.124-0.032-0.198-0.112c0.143-0.293,0.455-0.492,0.738-0.656   c0.369-0.215,0.531-0.09,0.535-0.088c0.108,0.106,0.103,0.166,0.102,0.188c-0.015,0.132-0.201,0.293-0.287,0.349   C30.47,40.984,30.463,40.988,30.453,40.996 M26.943,38.838c-0.049,0.043-0.098,0.088-0.153,0.142   c-0.192,0.186-0.4,0.414-0.485,0.717c-0.049-0.004-0.095-0.01-0.139-0.019c-0.211-0.03-0.328-0.1-0.351-0.151   c-0.015-0.031-0.055-0.127,0.067-0.289c0.181-0.234,0.568-0.424,0.847-0.424c0.027,0,0.052,0.002,0.076,0.006   c0.012,0.002,0.018,0.002,0.027,0.002C26.858,38.822,26.898,38.828,26.943,38.838 M35.392,39.246   c-0.097,0.092-0.243,0.139-0.438,0.146c-0.272-0.369-0.985-1.24-1.891-1.683c-0.079-0.039-0.167-0.045-0.251-0.016   c-0.083,0.029-0.149,0.088-0.188,0.166s-0.044,0.168-0.016,0.25c0.028,0.084,0.088,0.149,0.167,0.188   c0.766,0.373,1.397,1.146,1.647,1.479c-0.026,0.055-0.06,0.104-0.098,0.147c-0.123,0.142-0.307,0.209-0.537,0.209   c-0.083-0.18-0.229-0.393-0.438-0.633c-0.279-0.321-0.843-0.719-0.866-0.735c-0.072-0.052-0.159-0.07-0.246-0.056   c-0.085,0.017-0.162,0.063-0.211,0.135c-0.05,0.072-0.071,0.158-0.055,0.244c0.015,0.086,0.062,0.162,0.133,0.216   c0.146,0.1,0.562,0.411,0.748,0.627c0.219,0.254,0.307,0.407,0.342,0.481c-0.03,0.06-0.078,0.139-0.149,0.207   c-0.117,0.113-0.26,0.158-0.436,0.139c-0.083-0.186-0.267-0.534-0.599-0.907c-0.12-0.136-0.328-0.146-0.464-0.027   c-0.065,0.059-0.104,0.139-0.108,0.227c-0.005,0.089,0.023,0.173,0.082,0.238c0.229,0.256,0.37,0.494,0.452,0.656   c-0.055,0.035-0.111,0.063-0.171,0.086c-0.166,0.066-0.345,0.088-0.53,0.066c0.083-0.13,0.131-0.263,0.146-0.396   c0.021-0.182-0.016-0.455-0.292-0.725c-0.141-0.146-0.421-0.271-0.791-0.213c-0.026-0.201-0.135-0.386-0.317-0.544   c-0.299-0.26-0.646-0.331-1.032-0.213h-0.001c-0.06-0.149-0.194-0.35-0.499-0.502c-0.272-0.137-0.575-0.157-0.877-0.063   c-0.27-0.226-0.619-0.269-0.719-0.277c-0.436-0.059-0.999,0.148-1.371,0.502c-1.874,1.002-4.283,2.086-5.262,2.521   c-0.514-0.965-0.951-2.008-1.303-3.101c-0.095-0.297-0.185-0.604-0.269-0.91c2.754-0.315,4.969-0.641,6.584-0.963   c1.692-0.338,2.785-0.684,3.345-1.057c0.644-0.455,1.085-0.676,1.701-0.625c0.145,0.013,0.276,0.025,0.399,0.044   c-0.117,0.049-0.229,0.111-0.337,0.188c-0.259,0.182-0.417,0.312-0.558,0.425c-0.141,0.115-0.253,0.207-0.433,0.321   c-0.124,0.082-0.291,0.164-0.453,0.242c-0.384,0.188-0.688,0.336-0.785,0.599c-0.103,0.28-0.063,0.524,0.13,0.797   c0.294,0.412,0.771,0.387,1.154,0.362c0.429-0.022,0.953-0.182,1.335-0.399c0.138-0.08,0.259-0.16,0.364-0.23   c0.165-0.106,0.308-0.203,0.407-0.225c0.007,0,0.015-0.002,0.021-0.004c0.331-0.092,0.706-0.053,1.146,0.117   c0.398,0.153,0.788,0.393,1.15,0.629c0.858,0.557,1.495,1.311,1.684,1.547C35.526,39.035,35.487,39.156,35.392,39.246    M36.583,38.992c-0.282-0.199-0.479-0.406-0.57-0.51c-0.001-0.002-0.002-0.002-0.004-0.004l-0.01-0.015   c-0.024-0.028-0.042-0.049-0.048-0.057c-0.295-0.354-0.913-1.025-1.737-1.561c-0.604-0.396-1.729-1.128-2.818-0.832   c-0.217,0.051-0.405,0.174-0.623,0.317c-0.104,0.068-0.21,0.14-0.331,0.209c-0.342,0.195-0.771,0.299-1.043,0.314   c-0.312,0.018-0.505,0.02-0.583-0.088c-0.071-0.103-0.066-0.136-0.059-0.166c0.071-0.066,0.327-0.191,0.468-0.261   c0.179-0.088,0.364-0.178,0.521-0.28c0.208-0.136,0.345-0.246,0.489-0.363c0.132-0.107,0.28-0.229,0.521-0.398   c0.326-0.229,0.686-0.235,1.228-0.248h0.009c0.083,0,0.167-0.004,0.255-0.006c0.066,0,0.132-0.004,0.203-0.006   c0.58-0.026,1.104,0.16,1.895,0.447c0.229,0.082,0.49,0.176,0.785,0.274c0.043,0.017,1.11,0.353,2.562,0.695   c1.258,0.299,3.118,0.68,4.863,0.795c-0.077,0.283-0.16,0.563-0.247,0.834c-0.364,1.133-0.822,2.211-1.36,3.207   C40.077,40.935,37.97,40.019,36.583,38.992 M40.651,45.969c-0.842,0.789-1.561,1.063-2.015,1.154   c-0.182,0.035-0.339,0.049-0.469,0.049c-0.137,0-0.24-0.014-0.308-0.024c-0.007,0-0.011-0.006-0.012-0.013   c-0.028-0.602,0.2-1.188,0.681-1.743c0.148-0.175,0.318-0.336,0.503-0.488c0.005-0.004,0.01-0.006,0.016-0.002   c0.006,0.002,0.009,0.008,0.008,0.014c-0.055,0.5-0.251,0.979-0.251,0.984c-0.031,0.072-0.016,0.156,0.04,0.213   s0.139,0.074,0.212,0.045c0.654-0.256,1.223-0.256,1.586-0.211c0.005,0.002,0.01,0.004,0.012,0.01   C40.656,45.961,40.655,45.965,40.651,45.969 M42.137,43.992c-0.271,0.365-0.563,0.676-0.871,0.918   c-0.313,0.246-0.646,0.426-0.986,0.537c-0.318,0.104-0.586,0.125-0.756,0.125c-0.036,0-0.068-0.002-0.093-0.002   c-0.009,0-0.014-0.008-0.015-0.014c-0.041-0.578,0.134-1.179,0.521-1.779c0.12-0.188,0.257-0.369,0.409-0.541   c0.003-0.004,0.01-0.006,0.015-0.004s0.009,0.006,0.009,0.012c0.047,0.514-0.055,1.025-0.055,1.031   c-0.018,0.076,0.016,0.156,0.081,0.201c0.064,0.045,0.149,0.047,0.216,0.004c0.592-0.377,1.151-0.486,1.514-0.511   c0.005,0,0.011,0.003,0.015,0.007C42.141,43.982,42.141,43.988,42.137,43.992 M42.587,42.959c-0.284,0.277-0.596,0.49-0.924,0.635   c-0.384,0.173-0.711,0.203-0.833,0.209l0,0c-0.007,0-0.013-0.004-0.014-0.01c-0.103-0.571,0.01-1.186,0.33-1.824   c0.098-0.196,0.217-0.393,0.349-0.579c0.003-0.005,0.008-0.007,0.014-0.005c0.006,0,0.011,0.005,0.011,0.011   c0.102,0.498,0.054,1.024,0.054,1.03c-0.008,0.078,0.033,0.154,0.102,0.191c0.069,0.037,0.154,0.029,0.217-0.02   c0.549-0.437,1.093-0.603,1.452-0.662c0.004,0,0.011,0,0.013,0.006c0.003,0.004,0.003,0.01,0,0.016   C43.128,42.347,42.868,42.685,42.587,42.959 M43.677,40.842c-0.252,0.31-0.534,0.558-0.844,0.738   c-0.348,0.205-0.65,0.277-0.801,0.303c-0.001,0-0.002,0-0.002,0c-0.006,0-0.012-0.004-0.014-0.01   c-0.17-0.582-0.135-1.213,0.107-1.875c0.074-0.199,0.165-0.397,0.272-0.588c0.002-0.004,0.008-0.008,0.013-0.008   s0.011,0.004,0.012,0.01c0.158,0.494,0.185,1.016,0.185,1.023c0.003,0.078,0.055,0.147,0.129,0.174   c0.075,0.026,0.158,0.008,0.212-0.051c0.436-0.476,0.873-0.691,1.164-0.791c0.069-0.023,0.141-0.045,0.21-0.062   c0.004-0.002,0.011,0,0.014,0.004c0.002,0.004,0.003,0.01,0.002,0.017C44.153,40.156,43.93,40.531,43.677,40.842 M44.509,38.629   c-0.218,0.33-0.475,0.605-0.763,0.816c-0.339,0.248-0.649,0.348-0.769,0.381c-0.001,0-0.002,0-0.003,0   c-0.005,0-0.012-0.002-0.014-0.008c-0.277-0.676-0.196-1.398-0.08-1.885c0.054-0.22,0.123-0.441,0.21-0.658   c0.004-0.006,0.008-0.01,0.014-0.01c0.007,0,0.011,0.004,0.013,0.01c0.209,0.479,0.283,1.026,0.286,1.049   c0.01,0.078,0.066,0.143,0.141,0.164c0.077,0.022,0.157-0.004,0.207-0.064c0.442-0.543,0.938-0.817,1.275-0.955   c0.005-0.002,0.01-0.002,0.014,0.003c0.005,0.004,0.006,0.01,0.004,0.016C44.906,37.918,44.725,38.302,44.509,38.629 M45.121,36.32   c-0.176,0.354-0.396,0.658-0.656,0.902c-0.293,0.276-0.572,0.413-0.714,0.473c-0.002,0-0.003,0-0.005,0   c-0.005,0-0.01-0.002-0.012-0.008c-0.301-0.537-0.41-1.174-0.324-1.896c0.027-0.223,0.072-0.447,0.134-0.666   c0.002-0.006,0.007-0.01,0.014-0.012c0.005,0,0.01,0.002,0.014,0.008c0.269,0.459,0.411,1.023,0.413,1.029   c0.019,0.076,0.082,0.135,0.16,0.146c0.078,0.015,0.154-0.021,0.197-0.09c0.371-0.592,0.828-0.928,1.147-1.104   c0.004-0.002,0.009-0.002,0.015,0c0.004,0.004,0.007,0.01,0.005,0.016C45.424,35.566,45.294,35.969,45.121,36.32"/>
	<path fill="#EDC015" d="M34.851,13.033c0.431,0.004,0.864,0.099,1.285,0.283l0.063,0.01c0.229,0.041,0.69,0.113,1.193,0.146   c0.042,0.002,0.083,0.004,0.125,0.004c-0.264-0.083-0.461-0.191-0.667-0.304c-0.128-0.069-0.259-0.141-0.41-0.209   c-0.502-0.229-0.978-0.309-1.03-0.316c-0.064-0.009-0.115-0.066-0.114-0.133c0-0.067,0.05-0.124,0.114-0.135l2.33-0.348   l-2.327-0.334c-0.056-0.008-0.102-0.051-0.112-0.105c-0.012-0.055,0.013-0.111,0.061-0.142c0.015-0.011,0.382-0.239,0.911-0.356   c0.228-0.051,0.68-0.159,1.159-0.323c0.038-0.017,0.077-0.029,0.115-0.043c-0.274,0.022-0.5-0.001-0.733-0.025   c-0.144-0.016-0.29-0.031-0.458-0.037c-0.546-0.018-1.02,0.09-1.071,0.104c-0.064,0.016-0.132-0.019-0.158-0.079   c-0.023-0.063-0.001-0.134,0.057-0.167l2.019-1.211l-2.277,0.58c-0.054,0.014-0.112-0.009-0.145-0.055   c-0.033-0.047-0.032-0.107,0.001-0.154c0.011-0.016,0.266-0.37,0.705-0.679c0.191-0.135,0.567-0.41,0.945-0.744   c0.03-0.026,0.06-0.057,0.091-0.085c-0.246,0.13-0.462,0.192-0.688,0.26c-0.141,0.041-0.28,0.084-0.438,0.142   c-0.536,0.204-0.946,0.503-0.95,0.507c-0.053,0.039-0.129,0.033-0.176-0.014c-0.047-0.049-0.054-0.121-0.013-0.175l1.402-1.891   L33.773,8.41c-0.044,0.034-0.107,0.036-0.154,0.006c-0.048-0.031-0.069-0.089-0.058-0.143c0.004-0.02,0.104-0.446,0.391-0.898   c0.125-0.194,0.368-0.594,0.587-1.049c0.018-0.037,0.035-0.074,0.051-0.112c-0.177,0.212-0.354,0.354-0.535,0.503   c-0.115,0.094-0.229,0.187-0.349,0.299c-0.4,0.377-0.656,0.785-0.684,0.832c-0.035,0.058-0.107,0.08-0.168,0.054   c-0.062-0.023-0.096-0.092-0.078-0.156l0.574-2.281l-1.205,2.021c-0.03,0.047-0.086,0.072-0.142,0.063s-0.099-0.055-0.107-0.108   c-0.003-0.019-0.074-0.448,0.018-0.979c0.04-0.229,0.111-0.689,0.141-1.193c0.002-0.04,0.004-0.083,0.005-0.124   c-0.084,0.264-0.19,0.463-0.304,0.67c-0.068,0.127-0.139,0.257-0.208,0.409c-0.233,0.521-0.31,1.01-0.313,1.031   c-0.01,0.064-0.067,0.113-0.132,0.113c-0.066,0-0.124-0.049-0.133-0.115L30.632,4.94l-0.325,2.31   c-0.008,0.057-0.051,0.103-0.104,0.114c-0.056,0.01-0.112-0.014-0.143-0.062C30.033,7.26,29.814,6.9,29.702,6.39   c-0.051-0.229-0.159-0.683-0.325-1.158c-0.014-0.038-0.026-0.078-0.042-0.116c0.024,0.276-0.001,0.501-0.024,0.733   c-0.017,0.143-0.032,0.291-0.037,0.459C29.255,6.873,29.37,7.36,29.375,7.38c0.016,0.065-0.017,0.133-0.079,0.157   c-0.062,0.025-0.133,0.002-0.167-0.055l-1.216-2.021l0.585,2.277c0.016,0.055-0.007,0.113-0.053,0.145   c-0.047,0.032-0.109,0.031-0.154-0.001c-0.039-0.025-0.38-0.276-0.679-0.703c-0.134-0.193-0.408-0.568-0.744-0.947   c-0.027-0.029-0.055-0.062-0.083-0.091c0.127,0.247,0.191,0.462,0.257,0.687c0.041,0.14,0.083,0.281,0.143,0.438   c0.193,0.517,0.473,0.906,0.505,0.951c0.04,0.053,0.034,0.127-0.015,0.175c-0.046,0.047-0.12,0.052-0.175,0.014l-1.895-1.402   l1.413,1.884c0.031,0.045,0.035,0.105,0.004,0.153c-0.03,0.047-0.088,0.07-0.144,0.06c-0.018-0.006-0.44-0.103-0.897-0.394   c-0.195-0.125-0.593-0.367-1.047-0.588c-0.038-0.018-0.075-0.035-0.112-0.053c0.212,0.18,0.353,0.354,0.501,0.537   c0.092,0.112,0.185,0.228,0.298,0.35c0.396,0.42,0.828,0.682,0.832,0.686c0.059,0.033,0.082,0.104,0.056,0.167   c-0.024,0.061-0.093,0.096-0.157,0.077L24.064,9.31l2.025,1.202c0.049,0.027,0.074,0.085,0.063,0.142   c-0.01,0.054-0.054,0.099-0.109,0.106c-0.018,0.004-0.447,0.076-0.979-0.018c-0.229-0.041-0.688-0.112-1.194-0.141   c-0.041-0.004-0.083-0.005-0.124-0.006c0.265,0.084,0.462,0.189,0.668,0.303c0.12,0.063,0.255,0.139,0.41,0.209   c0.522,0.233,1.025,0.313,1.029,0.313c0.065,0.011,0.115,0.068,0.115,0.136c0,0.064-0.05,0.123-0.115,0.133l-2.331,0.343   l2.332,0.339c0.056,0.008,0.101,0.051,0.111,0.104c0.013,0.057-0.012,0.112-0.06,0.143c-0.015,0.01-0.384,0.242-0.911,0.359   c-0.228,0.051-0.681,0.161-1.157,0.328c-0.038,0.013-0.076,0.026-0.115,0.042c0.276-0.024,0.501-0.001,0.732,0.023   c0.034,0.004,0.36,0.032,0.458,0.035c0.117,0.004,0.238,0.002,0.363-0.006l0.027-0.021c0.452-0.313,1.014-0.563,1.666-0.744   c0.084-0.021,0.173-0.002,0.239,0.052c0.055,0.045,0.088,0.108,0.097,0.179c0.118-0.067,0.246-0.132,0.377-0.189   c0.491-0.214,1.081-0.351,1.75-0.404c0.083-0.008,0.162,0.022,0.217,0.083c0.041,0.044,0.064,0.099,0.07,0.154   c0.186-0.071,0.386-0.131,0.596-0.17c0.529-0.104,1.132-0.112,1.798-0.024c0.088,0.012,0.165,0.063,0.204,0.145   c0.011,0.023,0.019,0.047,0.022,0.072c0.181-0.028,0.369-0.041,0.567-0.04c0.539,0.004,1.133,0.117,1.766,0.337   c0.088,0.031,0.15,0.104,0.174,0.192C34.85,13.025,34.85,13.029,34.851,13.033"/>
	<path fill="#222220" d="M31.459,10.087c2.267-0.359,2.517,0.294,2.517,0.294s0.06,0.146,0.244,0.103c0,0,0.153-0.017,0.075-0.199   c0,0-0.248-0.741-1.454-0.869c0,0-0.619-0.084-1.301,0.036c-0.201,0.034-0.257,0.48-0.257,0.48   C31.253,10.129,31.459,10.087,31.459,10.087"/>
	<path fill="#222220" d="M29.526,10.527c-0.278-0.127-0.907-0.101-0.907-0.101c-1.023,0.034-1.293,0.671-1.293,0.671   c-0.09,0.213,0.09,0.229,0.09,0.229c0.213,0.054,0.283-0.119,0.283-0.119s0.059-0.18,0.479-0.284   c-0.023,0.062-0.037,0.126-0.037,0.193c0,0.29,0.234,0.524,0.524,0.524c0.289,0,0.523-0.234,0.523-0.524   c0-0.073-0.015-0.143-0.041-0.205c0.144,0.056,0.285,0.157,0.374,0.337c0.037,0.075,0.116,0.108,0.311,0.108   c0.209,0,0.159-0.138,0.159-0.138C29.867,10.683,29.526,10.527,29.526,10.527"/>
	<path fill="#222220" d="M31.412,11.358c0.195,0,0.274-0.032,0.312-0.108c0.089-0.18,0.229-0.282,0.375-0.338   c-0.027,0.063-0.042,0.134-0.042,0.207c0,0.289,0.233,0.523,0.523,0.523s0.524-0.234,0.524-0.523c0-0.068-0.015-0.134-0.037-0.194   c0.42,0.104,0.479,0.284,0.479,0.284s0.071,0.173,0.284,0.121c0,0,0.181-0.02,0.091-0.232c0,0-0.269-0.637-1.294-0.67   c0,0-0.63-0.026-0.906,0.101c0,0-0.341,0.157-0.467,0.694C31.253,11.221,31.202,11.358,31.412,11.358"/>
	<path fill="#222220" d="M27.029,10.482c0.183,0.045,0.244-0.103,0.244-0.103s0.25-0.653,2.515-0.294c0,0,0.206,0.042,0.177-0.155   c0,0-0.057-0.446-0.258-0.48c-0.682-0.12-1.301-0.037-1.301-0.037c-1.206,0.129-1.454,0.87-1.454,0.87   C26.874,10.466,27.029,10.482,27.029,10.482"/>
	<path fill="#5D9942" d="M40.643,45.945c-0.362-0.045-0.931-0.045-1.586,0.211c-0.073,0.029-0.157,0.01-0.212-0.045   c-0.056-0.057-0.071-0.142-0.041-0.213c0.001-0.006,0.197-0.484,0.252-0.984c0-0.006-0.002-0.012-0.008-0.014   c-0.005-0.004-0.011-0.002-0.016,0.002c-0.185,0.152-0.354,0.313-0.503,0.488c-0.479,0.557-0.708,1.143-0.68,1.743   c0,0.007,0.005,0.013,0.011,0.013c0.067,0.012,0.173,0.024,0.308,0.024c0.13,0,0.288-0.014,0.47-0.049   c0.453-0.092,1.173-0.365,2.014-1.154c0.004-0.004,0.005-0.008,0.004-0.014C40.653,45.949,40.648,45.947,40.643,45.945"/>
	<path fill="#5D9942" d="M22.251,44.885c-0.005-0.002-0.01-0.004-0.016,0c-0.005,0.003-0.007,0.009-0.007,0.013   c0.044,0.521,0.238,0.994,0.242,1c0.03,0.071,0.015,0.156-0.041,0.213c-0.057,0.057-0.14,0.074-0.213,0.045   c-0.659-0.258-1.227-0.258-1.587-0.211c-0.004,0-0.008,0.004-0.01,0.008c-0.003,0.006,0,0.012,0.003,0.016   c0.677,0.634,1.354,1.021,2.016,1.154c0.18,0.035,0.338,0.049,0.468,0.049c0.145,0,0.252-0.016,0.308-0.024   c0.006,0,0.01-0.006,0.01-0.013C23.473,46.074,22.709,45.273,22.251,44.885"/>
	<path fill="#5D9942" d="M42.125,43.969c-0.364,0.023-0.921,0.134-1.513,0.511c-0.067,0.041-0.152,0.039-0.217-0.004   c-0.066-0.045-0.098-0.125-0.082-0.201c0.001-0.006,0.104-0.521,0.056-1.031c0-0.006-0.004-0.01-0.009-0.012   c-0.006-0.002-0.012,0-0.015,0.004c-0.152,0.172-0.29,0.354-0.409,0.541c-0.387,0.604-0.562,1.201-0.521,1.779   c0.001,0.008,0.006,0.014,0.015,0.014c0.025,0,0.057,0.002,0.093,0.002c0.17,0,0.438-0.021,0.758-0.125   c0.34-0.111,0.671-0.291,0.984-0.537c0.309-0.242,0.602-0.553,0.871-0.918c0.003-0.004,0.003-0.01,0.001-0.016   C42.135,43.972,42.13,43.969,42.125,43.969"/>
	<path fill="#5D9942" d="M43.343,41.935c-0.359,0.061-0.902,0.227-1.451,0.662c-0.063,0.051-0.147,0.057-0.217,0.021   c-0.068-0.041-0.108-0.115-0.102-0.193c0-0.006,0.047-0.53-0.054-1.03c0-0.006-0.005-0.011-0.011-0.013   c-0.005,0-0.011,0.002-0.014,0.007c-0.133,0.188-0.251,0.383-0.349,0.579c-0.32,0.64-0.433,1.252-0.33,1.824   c0.001,0.006,0.007,0.01,0.014,0.01h0.001c0.122-0.006,0.448-0.038,0.833-0.209c0.328-0.145,0.64-0.356,0.924-0.635   c0.281-0.271,0.541-0.61,0.77-1.002c0.003-0.006,0.003-0.012,0-0.016C43.353,41.935,43.347,41.935,43.343,41.935"/>
	<path fill="#5D9942" d="M44.321,39.707c-0.069,0.017-0.14,0.037-0.21,0.062c-0.291,0.1-0.729,0.315-1.163,0.791   c-0.054,0.059-0.138,0.08-0.212,0.053s-0.126-0.098-0.129-0.176c-0.001-0.006-0.026-0.529-0.185-1.023   c-0.001-0.006-0.006-0.01-0.012-0.01c-0.005,0-0.011,0.002-0.013,0.008c-0.107,0.191-0.198,0.389-0.271,0.588   c-0.243,0.662-0.278,1.293-0.108,1.875c0.002,0.006,0.008,0.01,0.013,0.01c0.001,0,0.002,0,0.003,0   c0.149-0.024,0.454-0.098,0.801-0.303c0.31-0.184,0.593-0.43,0.844-0.738c0.253-0.311,0.475-0.686,0.659-1.114   c0.001-0.006,0-0.013-0.002-0.017C44.332,39.707,44.326,39.705,44.321,39.707"/>
	<path fill="#5D9942" d="M45.026,37.469c-0.339,0.138-0.834,0.412-1.275,0.955c-0.05,0.062-0.13,0.086-0.207,0.064   c-0.076-0.021-0.131-0.086-0.141-0.164c-0.003-0.021-0.077-0.568-0.286-1.049c-0.003-0.006-0.007-0.01-0.012-0.01h-0.001   c-0.005,0-0.01,0.004-0.014,0.01c-0.087,0.217-0.157,0.438-0.21,0.658c-0.116,0.485-0.197,1.211,0.08,1.885   c0.002,0.006,0.009,0.008,0.014,0.008c0.001,0,0.002,0,0.003,0c0.119-0.033,0.432-0.133,0.77-0.381   c0.288-0.211,0.545-0.484,0.765-0.816c0.215-0.326,0.395-0.711,0.533-1.143c0.001-0.006,0-0.012-0.004-0.017   C45.037,37.469,45.031,37.467,45.026,37.469"/>
	<path fill="#5D9942" d="M45.489,35.105c-0.319,0.176-0.776,0.51-1.147,1.104c-0.042,0.068-0.119,0.103-0.197,0.09   c-0.078-0.012-0.142-0.069-0.16-0.146c-0.001-0.006-0.146-0.572-0.414-1.029c-0.002-0.006-0.007-0.008-0.013-0.008   c-0.005,0.002-0.011,0.006-0.013,0.01c-0.062,0.222-0.106,0.445-0.134,0.666c-0.087,0.724,0.021,1.361,0.323,1.896   c0.002,0.006,0.006,0.008,0.012,0.008c0.001,0,0.004,0,0.005,0c0.142-0.059,0.42-0.195,0.714-0.471   c0.261-0.246,0.479-0.55,0.656-0.904c0.173-0.35,0.303-0.754,0.388-1.199c0.002-0.006-0.001-0.012-0.006-0.016   C45.498,35.103,45.492,35.103,45.489,35.105"/>
	<path fill="#5D9942" d="M44.681,33.951c-0.034,0.072-0.109,0.117-0.19,0.111c-0.08-0.006-0.147-0.058-0.174-0.135   c-0.001-0.005-0.182-0.531-0.508-0.933c-0.004-0.004-0.011-0.006-0.015-0.005c-0.005,0.001-0.008,0.006-0.009,0.011   c-0.044,0.227-0.067,0.453-0.073,0.679c-0.013,0.705,0.166,1.313,0.532,1.811c0.001,0.004,0.006,0.004,0.011,0.004   c0.002,0,0.005,0,0.007,0c0.106-0.059,0.387-0.229,0.657-0.547c0.229-0.271,0.416-0.596,0.55-0.967   c0.132-0.367,0.217-0.784,0.25-1.236c0-0.006-0.004-0.012-0.007-0.014c-0.004-0.002-0.011-0.002-0.015,0   C45.4,32.94,44.983,33.322,44.681,33.951"/>
	<path fill="#5D9942" d="M44.599,31.804c-0.081,0.006-0.153-0.039-0.188-0.109c-0.002-0.004-0.232-0.465-0.582-0.844   c-0.004-0.004-0.009-0.005-0.015-0.003c-0.005,0.001-0.009,0.008-0.01,0.013c-0.021,0.58,0.041,1.66,0.685,2.389   c0.003,0.002,0.006,0.004,0.01,0.004s0.006,0,0.008-0.002c0.102-0.066,0.362-0.264,0.601-0.604c0.202-0.292,0.354-0.633,0.45-1.017   c0.096-0.379,0.138-0.803,0.125-1.257c0-0.005-0.003-0.011-0.009-0.013c-0.004-0.002-0.01-0.002-0.015,0.002   c-0.272,0.236-0.65,0.657-0.888,1.313C44.745,31.75,44.677,31.801,44.599,31.804"/>
	<path fill="#5D9942" d="M44.489,29.5c-0.079,0.013-0.156-0.022-0.197-0.09c-0.003-0.005-0.27-0.428-0.642-0.766   c-0.004-0.004-0.01-0.004-0.015-0.002c-0.006,0.004-0.009,0.01-0.009,0.014c0.06,0.634,0.251,1.773,0.888,2.301   c0.002,0.002,0.005,0.002,0.009,0.002c0.003,0,0.005,0,0.008-0.002c0.096-0.078,0.34-0.299,0.548-0.67   c0.173-0.311,0.291-0.666,0.35-1.056c0.059-0.388,0.06-0.813,0.002-1.264c0-0.006-0.005-0.01-0.01-0.012s-0.01,0-0.015,0.004   c-0.25,0.265-0.583,0.72-0.756,1.396C44.629,29.431,44.566,29.488,44.489,29.5"/>
	<path fill="#5D9942" d="M44.183,27.258c-0.076,0.017-0.156-0.016-0.201-0.082c-0.003-0.003-0.301-0.43-0.7-0.752   c-0.004-0.004-0.01-0.005-0.015-0.002s-0.009,0.01-0.007,0.015c0.022,0.229,0.062,0.455,0.115,0.67   c0.119,0.479,0.373,1.145,0.909,1.598c0.002,0.003,0.005,0.003,0.009,0.003c0.002,0,0.006,0,0.01-0.003   c0.09-0.082,0.318-0.313,0.505-0.688c0.157-0.316,0.258-0.679,0.299-1.069c0.041-0.39,0.021-0.813-0.059-1.263   c0-0.004-0.004-0.01-0.01-0.011c-0.005-0.002-0.011,0-0.014,0.004c-0.237,0.274-0.548,0.743-0.689,1.429   C44.321,27.181,44.261,27.242,44.183,27.258"/>
	<path fill="#5D9942" d="M43.684,25.045c-0.075,0.025-0.156,0.006-0.21-0.053c-0.004-0.004-0.363-0.393-0.809-0.657   c-0.004-0.003-0.011-0.003-0.015,0c-0.003,0.004-0.006,0.009-0.005,0.016c0.049,0.222,0.115,0.437,0.195,0.642   c0.261,0.665,0.646,1.161,1.143,1.472c0.003,0.001,0.004,0.002,0.008,0.002c0.003,0,0.007-0.001,0.01-0.006   c0.078-0.092,0.274-0.354,0.407-0.748c0.112-0.336,0.162-0.707,0.148-1.102c-0.015-0.392-0.092-0.808-0.231-1.24   c-0.002-0.006-0.006-0.01-0.011-0.01c-0.004-0.002-0.01,0-0.013,0.006c-0.198,0.304-0.441,0.812-0.487,1.507   C43.81,24.951,43.759,25.019,43.684,25.045"/>
	<path fill="#5D9942" d="M42.703,22.847c-0.004-0.005-0.404-0.355-0.871-0.572c-0.006-0.002-0.011-0.001-0.016,0.002   c-0.004,0.004-0.006,0.01-0.003,0.016c0.072,0.215,0.161,0.422,0.261,0.616c0.329,0.636,0.763,1.089,1.29,1.349   c0.002,0,0.004,0.002,0.006,0.002c0.005,0,0.009-0.002,0.011-0.006c0.068-0.102,0.236-0.381,0.327-0.786   c0.077-0.346,0.089-0.72,0.034-1.109c-0.054-0.387-0.175-0.795-0.359-1.213c-0.002-0.004-0.007-0.008-0.012-0.008   c-0.007,0-0.01,0.003-0.013,0.008c-0.165,0.32-0.354,0.852-0.327,1.547c0.002,0.08-0.042,0.152-0.113,0.188   C42.846,22.912,42.762,22.9,42.703,22.847"/>
	<path fill="#5D9942" d="M40.745,20.338c-0.003,0.002-0.004,0.011-0.002,0.016c0.091,0.212,0.199,0.415,0.324,0.605   c0.388,0.591,0.885,0.996,1.478,1.202c0.002,0.001,0.003,0.001,0.005,0.001c0.006,0,0.011-0.002,0.014-0.007   c0.055-0.108,0.188-0.403,0.23-0.817c0.036-0.353,0.004-0.725-0.096-1.104s-0.268-0.771-0.499-1.166   c-0.004-0.004-0.009-0.006-0.013-0.006c-0.005,0-0.012,0.003-0.014,0.008c-0.125,0.339-0.252,0.886-0.144,1.573   c0.014,0.08-0.025,0.159-0.095,0.199c-0.069,0.041-0.159,0.035-0.223-0.016c-0.004-0.003-0.442-0.348-0.953-0.494   C40.755,20.332,40.749,20.333,40.745,20.338"/>
	<path fill="#5D9942" d="M39.447,18.616c-0.003,0.005-0.003,0.011,0,0.015c0.136,0.202,0.288,0.394,0.452,0.565   c0.492,0.521,1.035,0.843,1.614,0.95c0.001,0,0.001,0.001,0.001,0.001c0.008,0,0.013-0.005,0.015-0.01   c0.046-0.145,0.12-0.442,0.096-0.843c-0.021-0.353-0.113-0.715-0.274-1.077c-0.157-0.352-0.381-0.704-0.666-1.051   c-0.003-0.004-0.011-0.006-0.015-0.005c-0.005,0.001-0.009,0.007-0.01,0.012c-0.06,0.372-0.091,0.944,0.101,1.56   c0.024,0.08-0.005,0.168-0.073,0.218c-0.067,0.049-0.16,0.051-0.229,0.002c-0.005-0.004-0.442-0.304-0.999-0.344   C39.454,18.609,39.449,18.611,39.447,18.616"/>
	<path fill="#5D9942" d="M39.202,17.217c-0.055,0.062-0.142,0.081-0.218,0.053c-0.005-0.002-0.465-0.18-0.959-0.18   c-0.024,0-0.049,0.001-0.074,0.002c-0.005,0-0.011,0.003-0.013,0.009s0,0.012,0.002,0.016c0.181,0.188,0.372,0.359,0.567,0.51   c0.395,0.304,0.998,0.661,1.655,0.661c0.011,0,0.021,0,0.032,0c0.007,0,0.013-0.005,0.015-0.012   c0.016-0.122,0.041-0.452-0.055-0.866c-0.083-0.35-0.232-0.693-0.447-1.024c-0.211-0.324-0.485-0.64-0.818-0.934   c-0.006-0.004-0.011-0.005-0.017-0.002c-0.004,0.001-0.007,0.007-0.007,0.012c-0.012,0.36,0.043,0.917,0.364,1.534   C39.268,17.066,39.258,17.156,39.202,17.217"/>
	<path fill="#5D9942" d="M21.772,45.572c0.036,0,0.065-0.002,0.093-0.002c0.007-0.002,0.013-0.008,0.013-0.014   c0.059-0.955-0.562-1.857-0.938-2.31c-0.003-0.006-0.009-0.006-0.015-0.006c-0.005,0.002-0.008,0.006-0.009,0.014   c-0.057,0.521,0.063,1.004,0.064,1.011c0.02,0.077-0.01,0.159-0.075,0.207c-0.066,0.047-0.154,0.051-0.222,0.008   c-0.597-0.381-1.153-0.488-1.515-0.513c-0.007,0-0.011,0.002-0.014,0.009c-0.002,0.004-0.001,0.01,0.001,0.014   c0.271,0.367,0.563,0.678,0.872,0.92c0.313,0.246,0.645,0.426,0.986,0.537C21.333,45.551,21.602,45.572,21.772,45.572"/>
	<path fill="#5D9942" d="M20.465,43.804L20.465,43.804c0.007,0,0.014-0.007,0.015-0.013c0.119-0.697-0.115-1.367-0.333-1.809   c-0.099-0.199-0.215-0.398-0.348-0.588c-0.003-0.006-0.009-0.006-0.014-0.006s-0.01,0.006-0.011,0.012   c-0.107,0.514-0.054,0.998-0.051,1.018c0.01,0.08-0.03,0.156-0.101,0.195c-0.069,0.039-0.156,0.033-0.219-0.018   c-0.553-0.439-1.096-0.604-1.452-0.664c-0.005,0-0.011,0.002-0.014,0.006c-0.003,0.006-0.003,0.01-0.001,0.016   c0.229,0.394,0.488,0.73,0.771,1.004c0.285,0.277,0.598,0.49,0.923,0.635C20.002,43.758,20.312,43.795,20.465,43.804"/>
	<path fill="#5D9942" d="M19.249,41.914L19.249,41.914c0.008,0,0.014-0.004,0.016-0.01c0.177-0.58,0.143-1.209-0.104-1.871   c-0.076-0.207-0.171-0.408-0.283-0.605c-0.002-0.004-0.007-0.006-0.013-0.006s-0.011,0.004-0.012,0.009   c-0.164,0.491-0.18,1.024-0.18,1.03c-0.002,0.08-0.05,0.148-0.123,0.179c-0.073,0.028-0.156,0.012-0.213-0.043   c-0.427-0.431-0.872-0.652-1.168-0.765c-0.065-0.022-0.132-0.045-0.195-0.063c-0.005,0-0.012,0-0.016,0.004   c-0.003,0.006-0.004,0.012-0.002,0.016c0.183,0.418,0.398,0.783,0.646,1.086c0.251,0.31,0.534,0.556,0.842,0.736   C18.808,41.824,19.129,41.894,19.249,41.914"/>
	<path fill="#5D9942" d="M18.263,39.871c0.001,0,0.002,0,0.003,0c0.005,0,0.01-0.002,0.013-0.008   c0.457-1.012,0.139-2.014-0.093-2.519c-0.002-0.006-0.006-0.008-0.013-0.008c-0.005,0-0.01,0.002-0.012,0.008   c-0.223,0.472-0.302,1.013-0.303,1.017c-0.011,0.078-0.068,0.143-0.144,0.162c-0.075,0.021-0.156-0.006-0.205-0.066   c-0.375-0.477-0.79-0.748-1.072-0.889c-0.063-0.033-0.125-0.063-0.188-0.088c-0.004-0.002-0.01-0.002-0.014,0.002   s-0.005,0.008-0.004,0.014C16.768,39.271,17.832,39.748,18.263,39.871"/>
	<path fill="#5D9942" d="M16.788,37.285c0.318,0.279,0.622,0.408,0.736,0.449c0.002,0,0.004,0,0.006,0   c0.004,0,0.009-0.002,0.012-0.006c0.36-0.615,0.472-1.265,0.329-1.933c-0.046-0.215-0.118-0.426-0.213-0.627   c-0.002-0.004-0.007-0.008-0.012-0.008c-0.004,0-0.009,0.002-0.013,0.006c-0.27,0.455-0.396,1.008-0.4,1.031l0.014,0.004   l-0.014-0.004c-0.019,0.078-0.078,0.137-0.155,0.15c-0.078,0.016-0.156-0.019-0.201-0.082c-0.393-0.584-0.861-0.902-1.183-1.066   c-0.005-0.002-0.011-0.002-0.016,0.002c-0.004,0.004-0.007,0.01-0.006,0.014c0.101,0.443,0.244,0.845,0.43,1.189   C16.29,36.754,16.521,37.051,16.788,37.285"/>
	<path fill="#5D9942" d="M16.918,35.564c0.003,0.002,0.005,0.002,0.007,0.002c0.004,0,0.01-0.002,0.012-0.006   c0.735-0.996,0.665-1.979,0.558-2.478c-0.002-0.005-0.005-0.01-0.011-0.011s-0.011,0.001-0.014,0.005   c-0.347,0.41-0.561,0.926-0.563,0.931c-0.03,0.073-0.101,0.12-0.179,0.122c-0.001,0-0.002,0-0.004,0   c-0.077,0-0.147-0.045-0.18-0.116c-0.245-0.552-0.58-0.914-0.817-1.122c-0.054-0.044-0.107-0.087-0.162-0.13   c-0.004-0.005-0.01-0.005-0.016-0.003c-0.005,0.005-0.008,0.009-0.007,0.016C15.625,34.619,16.532,35.34,16.918,35.564"/>
	<path fill="#5D9942" d="M16.728,33.326c0.001,0.002,0.004,0.002,0.007,0.002c0.004,0,0.007,0,0.01-0.004   c0.357-0.344,0.585-0.793,0.677-1.334c0.077-0.453,0.04-0.873-0.003-1.148c-0.001-0.004-0.004-0.009-0.009-0.011   c-0.005-0.001-0.01,0-0.014,0.003c-0.415,0.379-0.501,0.871-0.502,0.875c-0.016,0.09-0.09,0.156-0.182,0.163   c-0.091,0.007-0.173-0.048-0.2-0.135c-0.187-0.573-0.48-0.968-0.695-1.198c-0.048-0.052-0.098-0.102-0.147-0.146   c-0.004-0.004-0.01-0.005-0.014-0.003c-0.006,0.002-0.008,0.007-0.009,0.012C15.53,32.256,16.364,33.064,16.728,33.326"/>
	<path fill="#5D9942" d="M16.19,30.287c0.203,0.363,0.442,0.585,0.538,0.662c0.002,0.002,0.005,0.003,0.008,0.003   s0.006-0.001,0.01-0.004c0.428-0.396,0.704-0.954,0.821-1.659c0.037-0.227,0.055-0.459,0.056-0.696   c0-0.005-0.003-0.009-0.008-0.012c-0.005-0.002-0.01-0.001-0.015,0.003c-0.395,0.352-0.612,0.804-0.613,0.808   c-0.036,0.073-0.115,0.118-0.197,0.11c-0.083-0.008-0.15-0.065-0.172-0.146c-0.172-0.676-0.507-1.132-0.756-1.396   c-0.003-0.004-0.009-0.006-0.014-0.004c-0.006,0.002-0.011,0.006-0.011,0.012c-0.055,0.451-0.055,0.876,0.002,1.264   C15.9,29.621,16.016,29.975,16.19,30.287"/>
	<path fill="#5D9942" d="M16.429,27.985c0.176,0.354,0.389,0.581,0.5,0.683c0.002,0.002,0.005,0.004,0.01,0.004   c0.002,0,0.006-0.002,0.008-0.004c0.493-0.438,0.82-1.001,0.973-1.672c0.046-0.203,0.075-0.409,0.084-0.615   c0-0.004-0.002-0.01-0.006-0.014c-0.006-0.001-0.012,0-0.015,0.002c-0.41,0.322-0.716,0.759-0.729,0.777   c-0.046,0.063-0.124,0.097-0.2,0.08c-0.079-0.017-0.139-0.075-0.154-0.152c-0.142-0.684-0.453-1.152-0.689-1.428   c-0.003-0.004-0.009-0.006-0.015-0.004c-0.005,0.001-0.009,0.006-0.01,0.012c-0.078,0.447-0.098,0.873-0.058,1.26   C16.17,27.306,16.27,27.668,16.429,27.985"/>
	<path fill="#5D9942" d="M17.234,26.434c0.003,0.003,0.007,0.005,0.011,0.005c0.003,0,0.004-0.002,0.008-0.002   c0.593-0.371,1.002-0.894,1.219-1.552c0.066-0.2,0.111-0.407,0.135-0.616c0.001-0.005-0.002-0.011-0.006-0.013   c-0.003-0.004-0.01-0.004-0.015-0.002c-0.484,0.277-0.837,0.693-0.841,0.697c-0.051,0.063-0.134,0.086-0.21,0.063   c-0.077-0.024-0.13-0.093-0.137-0.173c-0.057-0.699-0.307-1.201-0.507-1.501c-0.003-0.004-0.008-0.008-0.015-0.006   c-0.005,0.001-0.01,0.004-0.011,0.01c-0.133,0.437-0.206,0.855-0.214,1.246c-0.009,0.396,0.047,0.767,0.164,1.101   C16.955,26.084,17.155,26.342,17.234,26.434"/>
	<path fill="#5D9942" d="M17.807,24.244c0.003,0.004,0.007,0.007,0.012,0.007c0.002,0,0.003,0,0.006-0.001   c0.633-0.314,1.105-0.784,1.404-1.391c0.09-0.188,0.162-0.381,0.212-0.578c0.001-0.006-0.001-0.01-0.004-0.014   c-0.004-0.004-0.01-0.005-0.016-0.002c-0.486,0.209-0.903,0.567-0.922,0.583c-0.06,0.052-0.144,0.063-0.215,0.027   c-0.07-0.034-0.115-0.105-0.111-0.186c0.034-0.702-0.151-1.232-0.313-1.553c-0.002-0.006-0.007-0.009-0.012-0.009   c-0.007,0-0.012,0.003-0.013,0.009c-0.188,0.415-0.313,0.822-0.371,1.211c-0.059,0.391-0.05,0.764,0.023,1.108   C17.574,23.849,17.725,24.119,17.807,24.244"/>
	<path fill="#5D9942" d="M18.632,22.154c0.002,0.006,0.008,0.008,0.013,0.008c0.001,0,0.003,0,0.004-0.001   c0.571-0.165,1.075-0.544,1.498-1.124c0.18-0.247,0.309-0.486,0.384-0.643c0.003-0.005,0.003-0.011,0-0.015   s-0.007-0.006-0.013-0.005c-0.556,0.075-0.957,0.464-0.96,0.469c-0.063,0.062-0.156,0.074-0.232,0.032   c-0.078-0.041-0.117-0.126-0.1-0.212c0.138-0.688,0.033-1.238-0.078-1.58c-0.001-0.005-0.005-0.009-0.01-0.009   c-0.006-0.001-0.011,0.002-0.015,0.006c-0.248,0.385-0.432,0.769-0.548,1.144c-0.116,0.378-0.164,0.747-0.143,1.102   C18.459,21.742,18.58,22.043,18.632,22.154"/>
	<path fill="#5D9942" d="M19.783,20.15C19.784,20.15,19.784,20.15,19.783,20.15c0.956-0.16,1.694-1.02,2.05-1.517   c0.003-0.006,0.003-0.012,0.001-0.016c-0.003-0.004-0.008-0.008-0.014-0.008c-0.548,0.047-0.979,0.34-0.983,0.342   c-0.069,0.049-0.163,0.047-0.229-0.004c-0.068-0.051-0.096-0.139-0.068-0.219c0.222-0.667,0.185-1.226,0.114-1.576   c-0.001-0.006-0.005-0.01-0.01-0.012c-0.005-0.001-0.012,0.001-0.016,0.005c-1.191,1.435-0.997,2.57-0.858,2.995   C19.773,20.147,19.777,20.15,19.783,20.15"/>
	<path fill="#5D9942" d="M21.124,18.293c0.022,0.002,0.045,0.002,0.067,0.002c0.566,0,1.156-0.358,1.558-0.668   c0.195-0.149,0.393-0.322,0.582-0.512c0.003-0.004,0.004-0.01,0.003-0.016c-0.003-0.006-0.009-0.009-0.014-0.009   c-0.506,0.019-0.982,0.179-0.987,0.181c-0.078,0.024-0.16,0.002-0.213-0.06c-0.053-0.061-0.063-0.146-0.024-0.219   c0.323-0.623,0.377-1.182,0.364-1.537c0-0.006-0.004-0.011-0.009-0.013c-0.004-0.003-0.011-0.001-0.015,0.002   c-0.346,0.303-0.63,0.624-0.847,0.952c-0.217,0.331-0.364,0.675-0.442,1.021c-0.094,0.415-0.059,0.741-0.037,0.862   C21.112,18.287,21.117,18.293,21.124,18.293"/>
	<path fill="#5D9942" d="M25.08,15.769c-0.508-0.039-1.009,0.06-1.014,0.061c-0.078,0.017-0.158-0.016-0.203-0.082   c-0.044-0.063-0.045-0.149-0.002-0.218c0.382-0.589,0.49-1.138,0.514-1.496c0-0.005-0.002-0.009-0.008-0.013   c-0.004-0.002-0.01-0.002-0.015,0.001c-1.514,1.089-1.621,2.234-1.597,2.679c0.001,0.006,0.008,0.012,0.015,0.012   c0.033,0.002,0.065,0.002,0.098,0.002c0.921,0,1.781-0.571,2.219-0.922c0.004-0.002,0.009-0.009,0.006-0.016   C25.091,15.773,25.086,15.769,25.08,15.769"/>
	<path fill="#5D9942" d="M27.017,14.838c-0.158-0.047-0.336-0.084-0.528-0.108c-0.286-0.037-0.502-0.035-0.504-0.036h-0.001   c-0.082,0-0.156-0.05-0.186-0.128c-0.029-0.076-0.007-0.164,0.057-0.218c0.525-0.451,0.773-0.864,0.889-1.133   c0.002-0.005,0-0.01-0.003-0.016c-0.004-0.002-0.01-0.004-0.015-0.002c-1.761,0.596-2.146,1.624-2.229,2.039   c-0.001,0.007,0.003,0.014,0.011,0.016c0.179,0.051,0.412,0.095,0.698,0.095c0.329,0,0.727-0.057,1.188-0.216   c0.21-0.071,0.421-0.162,0.625-0.266c0.005-0.004,0.009-0.009,0.008-0.015C27.027,14.844,27.023,14.84,27.017,14.838"/>
	<path fill="#5D9942" d="M29.126,14.268c-0.459-0.23-0.975-0.327-0.979-0.328c-0.083-0.018-0.147-0.083-0.158-0.167   c-0.012-0.085,0.031-0.166,0.107-0.203c0.576-0.285,0.867-0.578,1.013-0.773c0.003-0.006,0.004-0.011,0.001-0.016   c-0.003-0.006-0.009-0.008-0.014-0.006c-0.9,0.125-1.616,0.432-2.072,0.882c-0.234,0.231-0.355,0.457-0.414,0.604   c-0.003,0.008,0,0.017,0.006,0.019c0.392,0.182,0.806,0.24,1.179,0.24c0.251,0,0.483-0.025,0.68-0.062   c0.216-0.039,0.436-0.094,0.65-0.164c0.006-0.004,0.009-0.007,0.009-0.013C29.134,14.277,29.131,14.271,29.126,14.268"/>
	<path fill="#5D9942" d="M30.501,13.673c-0.079-0.028-0.13-0.105-0.128-0.189s0.06-0.157,0.141-0.183   c0.573-0.176,0.927-0.395,1.122-0.546c0.004-0.003,0.006-0.009,0.004-0.015s-0.008-0.01-0.014-0.01   c-0.884-0.06-1.635,0.089-2.168,0.426c-0.279,0.178-0.446,0.372-0.538,0.504c-0.004,0.006-0.003,0.014,0.003,0.018   c0.6,0.456,1.376,0.563,1.969,0.563c0.185,0,0.352-0.012,0.489-0.023c0.006-0.002,0.012-0.005,0.013-0.01   c0.002-0.006,0-0.012-0.004-0.015C30.992,13.859,30.506,13.675,30.501,13.673"/>
	<path fill="#5D9942" d="M32.811,13.83c-0.068-0.047-0.101-0.13-0.08-0.209c0.018-0.079,0.085-0.139,0.167-0.147   c0.582-0.07,0.971-0.211,1.194-0.314c0.006-0.004,0.009-0.008,0.009-0.014c0-0.007-0.005-0.013-0.011-0.015   c-0.846-0.229-1.603-0.23-2.188-0.011c-0.313,0.117-0.516,0.274-0.632,0.386c-0.005,0.005-0.005,0.015,0,0.019   c0.734,0.879,1.765,1.039,2.313,1.057c0.005,0,0.01-0.004,0.014-0.008c0.001-0.006,0.001-0.012-0.002-0.015   C33.266,14.144,32.815,13.833,32.811,13.83"/>
	<path fill="#5D9942" d="M38.558,16.709c0.006,0,0.013-0.007,0.013-0.013c0.003-0.188-0.015-0.563-0.17-0.961   c-0.264-0.676-0.802-1.153-1.599-1.421c-0.005,0-0.012,0-0.015,0.005c-0.003,0.004-0.004,0.01-0.003,0.015   c0.109,0.316,0.309,0.777,0.627,1.179c0.052,0.063,0.059,0.157,0.012,0.229c-0.046,0.071-0.13,0.104-0.212,0.086   c-0.004-0.002-0.493-0.114-1.005-0.016c-0.005,0.002-0.01,0.006-0.011,0.011c-0.001,0.007,0.001,0.011,0.006,0.016   c0.5,0.333,1.442,0.876,2.251,0.876C38.488,16.713,38.523,16.712,38.558,16.709"/>
	<path fill="#5D9942" d="M36.729,15.28c0-0.005,0-0.009-0.004-0.013c-0.438-0.466-1-0.681-1.672-0.64   c-0.236,0.016-0.477,0.062-0.716,0.136c-0.004,0.002-0.008,0.006-0.01,0.012c0,0.005,0.001,0.01,0.006,0.012   c0.532,0.414,1.09,0.623,1.659,0.623c0.032,0,0.063,0,0.095-0.002c0.271-0.011,0.494-0.07,0.634-0.118   C36.725,15.288,36.728,15.285,36.729,15.28"/>
	<path fill="#5D9942" d="M33.492,13.86c0,0.005,0.002,0.011,0.006,0.013c0.336,0.236,0.749,0.355,1.229,0.355   c0.202,0,0.417-0.021,0.642-0.063c0.358-0.065,0.673-0.175,0.875-0.254c0.004-0.004,0.009-0.008,0.009-0.014   c0-0.004-0.003-0.01-0.006-0.013c-0.323-0.18-0.651-0.299-0.979-0.354c-0.351-0.062-0.7-0.049-1.045,0.031   c-0.319,0.076-0.569,0.196-0.725,0.286C33.495,13.851,33.492,13.856,33.492,13.86"/>
	<path fill="#C5351A" d="M26.91,26.713c0.109,0.134,0.289,0.197,0.55,0.197h2.555c-1.533-0.951-2.097-0.779-3.165-0.293   C26.867,26.652,26.887,26.683,26.91,26.713"/>
	<path fill="#C5351A" d="M33.147,25.543c-0.239-0.063-0.466-0.123-0.668-0.205c-0.804-0.319-1.462-0.84-1.492-0.86   c-0.161-0.127-0.189-0.365-0.062-0.525c0.129-0.162,0.364-0.188,0.526-0.063c0.006,0.006,0.603,0.473,1.305,0.755   c0.158,0.063,0.363,0.118,0.581,0.175c0.316,0.084,0.705,0.188,1.032,0.354c-0.066-0.423-0.132-0.781-0.205-1.126   c-1.028-0.229-1.877-0.924-1.913-0.953c-0.078-0.063-0.125-0.152-0.134-0.254c-0.01-0.1,0.021-0.194,0.083-0.272   c0.132-0.158,0.369-0.183,0.527-0.05c0.005,0.005,0.551,0.445,1.235,0.691c-0.271-1.014-0.64-1.967-1.125-2.91   c-0.346-0.672-0.854-1.123-1.513-1.34c-0.479-0.157-0.863-0.127-0.866-0.126c-0.013,0.001-0.024,0.001-0.036,0.001   s-1.24,0.021-2.013,0.931c-0.005,0.008-0.013,0.014-0.019,0.021c-0.143,0.146-0.526,0.599-0.583,0.938   c-0.033,0.188,0.017,0.338,0.129,0.401c0.053,0.029,0.253,0.109,0.602-0.136c0.086-0.072,0.144-0.112,0.157-0.122   c0.165-0.114,0.388-0.079,0.51,0.078c0.122,0.158,0.101,0.383-0.052,0.514c-0.049,0.041-0.098,0.08-0.148,0.117   c-0.154,0.131-0.469,0.423-0.815,0.889c-0.462,0.623-1.078,1.696-1.392,3.268c-0.006,0.032-0.012,0.063-0.017,0.093   c1.063-0.459,1.925-0.65,3.817,0.571c0.737,0.478,1.594,0.512,1.758,0.515h0.836c0.009,0,0.017,0,0.025,0   c0.216,0.014,0.842-0.018,1.124-0.326c0.049-0.053,0.086-0.115,0.111-0.184C34.44,25.959,34.037,25.779,33.147,25.543"/>
	<path fill="#EABF83" d="M29.469,40.17c0.102-0.08,0.212-0.211,0.217-0.299c0.003-0.041-0.031-0.096-0.101-0.154   c-0.081-0.069-0.164-0.104-0.259-0.104c-0.188,0-0.417,0.133-0.75,0.367c-0.214,0.149-0.568,0.442-0.54,0.717   c0.014,0.115,0.058,0.158,0.099,0.186c0.174,0.119,0.521,0.078,0.649,0.06C28.914,40.65,29.138,40.398,29.469,40.17"/>
	<path fill="#EABF83" d="M30.766,40.631c0.002-0.02,0.008-0.08-0.103-0.188c-0.004-0.002-0.165-0.127-0.535,0.088   c-0.281,0.164-0.595,0.363-0.737,0.656c0.075,0.08,0.147,0.104,0.198,0.112c0.308,0.062,0.737-0.207,0.863-0.305   c0.01-0.008,0.019-0.012,0.024-0.018C30.565,40.924,30.752,40.76,30.766,40.631"/>
	<path fill="#EABF83" d="M26.805,38.818c-0.023-0.004-0.049-0.006-0.075-0.006c-0.278,0-0.667,0.188-0.848,0.424   c-0.122,0.162-0.08,0.258-0.066,0.289c0.021,0.053,0.14,0.119,0.35,0.151c0.044,0.009,0.09,0.015,0.139,0.019   c0.084-0.303,0.292-0.531,0.483-0.717c0.057-0.054,0.104-0.099,0.154-0.14c-0.045-0.012-0.085-0.018-0.11-0.02   C26.823,38.82,26.817,38.818,26.805,38.818"/>
	<path fill="#EABF83" d="M26.923,40.004c0.007,0.06,0.021,0.224,0.345,0.328c0.047,0.017,0.099,0.029,0.153,0.041   c0.098-0.324,0.357-0.637,0.778-0.932c0.057-0.039,0.117-0.082,0.181-0.125c0.003-0.021,0.001-0.043-0.005-0.06   c-0.017-0.057-0.083-0.112-0.184-0.166c-0.067-0.032-0.138-0.049-0.212-0.049c-0.208,0-0.447,0.133-0.734,0.41   C27,39.687,26.913,39.836,26.923,40.004"/>
	<path fill="#EABF83" d="M34.957,39.39c0.193-0.007,0.339-0.054,0.437-0.146c0.095-0.09,0.132-0.211,0.147-0.301   c-0.188-0.236-0.825-0.99-1.684-1.547c-0.362-0.236-0.751-0.476-1.149-0.629c-0.44-0.17-0.815-0.209-1.146-0.117   c-0.006,0.002-0.014,0.002-0.021,0.004c-0.099,0.021-0.242,0.115-0.407,0.225c-0.105,0.07-0.228,0.15-0.364,0.23   c-0.382,0.221-0.906,0.377-1.335,0.399c-0.384,0.023-0.859,0.05-1.154-0.362c-0.192-0.271-0.232-0.517-0.129-0.797   c0.099-0.263,0.399-0.41,0.783-0.599c0.163-0.08,0.331-0.16,0.454-0.242c0.179-0.114,0.291-0.207,0.433-0.321   c0.139-0.113,0.299-0.243,0.558-0.426c0.108-0.075,0.22-0.138,0.336-0.188c-0.123-0.016-0.256-0.031-0.399-0.043   c-0.615-0.051-1.055,0.168-1.701,0.623c-0.559,0.377-1.651,0.721-3.345,1.059c-1.616,0.322-3.83,0.646-6.583,0.963   c0.083,0.306,0.174,0.613,0.269,0.91c0.352,1.092,0.789,2.133,1.303,3.101c0.979-0.433,3.389-1.519,5.262-2.521   c0.373-0.354,0.937-0.559,1.371-0.502c0.1,0.008,0.449,0.053,0.719,0.277c0.302-0.096,0.604-0.074,0.878,0.063   c0.303,0.152,0.438,0.353,0.498,0.502c0.387-0.118,0.733-0.047,1.033,0.211c0.184,0.162,0.291,0.345,0.317,0.546   c0.369-0.06,0.649,0.067,0.791,0.213c0.276,0.27,0.313,0.543,0.292,0.725c-0.015,0.135-0.063,0.268-0.145,0.396   c0.186,0.021,0.364,0,0.528-0.066c0.06-0.023,0.117-0.053,0.171-0.086c-0.081-0.162-0.224-0.4-0.451-0.658   c-0.06-0.063-0.087-0.147-0.082-0.236c0.005-0.088,0.043-0.168,0.108-0.227c0.136-0.119,0.344-0.107,0.464,0.027   c0.332,0.373,0.515,0.723,0.599,0.907c0.176,0.021,0.318-0.024,0.437-0.139c0.07-0.068,0.119-0.147,0.148-0.207   c-0.035-0.076-0.122-0.229-0.342-0.481c-0.187-0.216-0.603-0.527-0.748-0.63c-0.071-0.051-0.118-0.127-0.134-0.213   c-0.015-0.086,0.004-0.172,0.055-0.244c0.051-0.071,0.126-0.118,0.213-0.135c0.087-0.016,0.173,0.004,0.245,0.056   c0.023,0.018,0.587,0.413,0.866,0.735c0.208,0.24,0.354,0.453,0.438,0.631c0.232,0.002,0.415-0.065,0.539-0.207   c0.038-0.045,0.07-0.094,0.097-0.147c-0.249-0.332-0.883-1.105-1.647-1.479c-0.079-0.039-0.138-0.104-0.167-0.188   c-0.028-0.082-0.023-0.172,0.016-0.25s0.105-0.14,0.188-0.166c0.084-0.029,0.172-0.023,0.25,0.016   C33.97,38.15,34.681,39.021,34.957,39.39"/>
	<path fill="#EABF83" d="M30.772,36.334c0.218-0.145,0.405-0.268,0.624-0.317c1.089-0.295,2.214,0.438,2.818,0.832   c0.823,0.534,1.44,1.207,1.736,1.561c0.005,0.008,0.021,0.027,0.047,0.057l0.011,0.015c0.002,0.002,0.004,0.002,0.004,0.004   c0.092,0.104,0.288,0.311,0.57,0.51c1.388,1.027,3.494,1.943,4.366,2.303c0.539-0.996,0.995-2.073,1.358-3.207   c0.087-0.271,0.17-0.551,0.248-0.834c-1.745-0.114-3.605-0.496-4.864-0.795c-1.449-0.344-2.517-0.68-2.561-0.694   c-0.295-0.101-0.556-0.193-0.785-0.275c-0.791-0.287-1.315-0.475-1.896-0.447c-0.069,0.002-0.137,0.006-0.202,0.006   c-0.089,0.002-0.174,0.007-0.256,0.007h-0.009c-0.542,0.012-0.9,0.02-1.229,0.248c-0.24,0.17-0.389,0.291-0.521,0.397   c-0.146,0.117-0.282,0.229-0.489,0.363c-0.157,0.104-0.343,0.192-0.522,0.281c-0.14,0.067-0.396,0.192-0.465,0.26   c-0.011,0.031-0.015,0.063,0.058,0.166c0.077,0.106,0.271,0.104,0.582,0.088c0.272-0.017,0.702-0.119,1.044-0.314   C30.562,36.472,30.669,36.402,30.772,36.334"/>
</g>
</svg>